<svg width="40" height="56" viewBox="0 0 40 56" fill="none" xmlns="http://www.w3.org/2000/svg">
<path fill-rule="evenodd" clip-rule="evenodd" d="M0 19.6192C0 8.71871 9.09997 2.27438e-06 20 0C30.9 -2.24279e-06 40 8.71871 40 19.6192C40 22.5792 38.9952 26.0435 37.4953 29.588C35.9893 33.147 33.9539 36.856 31.827 40.3255C27.5728 47.2652 22.9138 53.3094 21.2779 55.3792C20.6238 56.2069 19.3762 56.2069 18.722 55.3792C17.0862 53.3094 12.4271 47.2652 8.17299 40.3255C6.0461 36.856 4.01066 33.147 2.50464 29.588C1.00477 26.0435 -3.3659e-06 22.5792 0 19.6192ZM20 1.66604C10.033 1.66604 1.70283 9.6461 1.70283 19.6192C1.70283 22.2548 2.60928 25.4799 4.07797 28.9507C5.54051 32.407 7.53093 36.0391 9.6333 39.4686C13.7793 46.2318 18.3227 52.146 20 54.2725C21.6773 52.146 26.2207 46.2318 30.3667 39.4686C32.4691 36.0391 34.4595 32.407 35.922 28.9507C37.3907 25.4799 38.2972 22.2548 38.2972 19.6192C38.2972 9.6461 29.967 1.66604 20 1.66604ZM12.9383 19.6192C12.9383 15.7247 16.0757 12.5241 20 12.5241C23.9243 12.5241 27.0618 15.7247 27.0618 19.6192C27.0618 23.5136 23.9243 26.7143 20 26.7142C16.0757 26.7142 12.9383 23.5136 12.9383 19.6192ZM20 14.1901C17.0641 14.1902 14.6411 16.5972 14.6411 19.6192C14.6411 22.6411 17.0641 25.0482 20 25.0482C22.9359 25.0482 25.3589 22.6412 25.3589 19.6192C25.3589 16.5972 22.9359 14.1901 20 14.1901Z" fill="white"/>
</svg>
