<svg width="36.141602" height="36.500000" viewBox="0 0 36.1416 36.5" fill="none" xmlns="http://www.w3.org/2000/svg" xmlns:xlink="http://www.w3.org/1999/xlink">
	<desc>
			Created with Pixso.
	</desc>
	<defs/>
	<path id="Vector 30 (Stroke)" d="M4.02 13.71C4.98 13.99 6.35 14.04 8.7 13.9L8.72 13.93C8.79 14 8.89 14.11 9.02 14.24C9.28 14.52 9.65 14.91 10.11 15.4C11.04 16.37 12.31 17.71 13.71 19.16C16.51 22.07 19.83 25.46 21.87 27.37C21.92 27.42 21.95 27.48 21.95 27.55C21.94 27.9 21.93 28.24 21.92 28.59C21.84 30.69 21.75 32.81 23.74 34.65C24.93 35.75 26.57 36.26 27.93 36.43C28.61 36.51 29.23 36.51 29.7 36.45C29.94 36.42 30.14 36.37 30.31 36.31C30.39 36.28 30.47 36.24 30.53 36.19C30.6 36.14 30.66 36.07 30.7 35.98C30.75 35.87 30.72 35.75 30.7 35.67C30.67 35.59 30.63 35.5 30.57 35.42C30.47 35.25 30.31 35.06 30.13 34.85C29.76 34.43 29.24 33.93 28.73 33.43C28.65 33.35 28.56 33.26 28.48 33.18C28.05 32.77 27.64 32.37 27.31 32.03C27.12 31.82 26.96 31.65 26.86 31.51C26.8 31.44 26.77 31.39 26.74 31.34C26.74 31.33 26.73 31.32 26.73 31.32C26.73 31.31 26.73 31.3 26.74 31.29C26.75 31.26 26.78 31.22 26.81 31.16C26.88 31.05 26.99 30.91 27.12 30.76C27.39 30.45 27.75 30.08 28.14 29.73C28.53 29.38 28.93 29.04 29.27 28.8C29.44 28.68 29.59 28.58 29.71 28.52C29.77 28.49 29.81 28.47 29.85 28.45C29.88 28.44 29.9 28.44 29.9 28.44C29.92 28.44 30.01 28.46 30.16 28.57C30.31 28.67 30.48 28.83 30.67 29.02C31.06 29.4 31.51 29.9 31.96 30.42L32.07 30.54C32.47 31.01 32.87 31.47 33.21 31.81C33.39 31.99 33.57 32.15 33.72 32.26C33.79 32.32 33.87 32.37 33.95 32.4C34.03 32.43 34.13 32.46 34.25 32.42C34.36 32.39 34.43 32.31 34.48 32.24C34.53 32.17 34.56 32.09 34.59 32C34.64 31.83 34.68 31.61 34.7 31.37C34.73 30.87 34.7 30.22 34.6 29.52C34.39 28.12 33.88 26.46 32.93 25.45C32.23 24.7 31.7 24.16 30.73 23.87C29.78 23.57 28.44 23.52 26.12 23.65C26.04 23.65 25.98 23.63 25.93 23.58C24.02 21.67 20.71 18.29 17.88 15.38C16.46 13.93 15.16 12.6 14.22 11.63C13.75 11.14 13.36 10.75 13.1 10.48L12.75 10.12C12.76 9.73 12.77 9.34 12.79 8.95C12.79 8.75 12.8 8.54 12.81 8.33C12.83 7.71 12.83 7.08 12.75 6.46C12.6 5.22 12.16 4.02 10.96 2.91C9.77 1.81 8.13 1.3 6.78 1.13C6.1 1.05 5.48 1.05 5 1.11C4.77 1.14 4.56 1.18 4.4 1.25C4.32 1.28 4.24 1.32 4.17 1.37C4.11 1.42 4.04 1.48 4 1.58C3.96 1.69 3.98 1.81 4.01 1.89C4.03 1.97 4.08 2.06 4.13 2.14C4.23 2.31 4.39 2.5 4.58 2.71C4.95 3.13 5.46 3.63 5.97 4.13C6.06 4.21 6.14 4.3 6.22 4.38C6.65 4.79 7.07 5.19 7.39 5.53C7.59 5.74 7.74 5.91 7.85 6.05C7.9 6.12 7.94 6.17 7.96 6.21C7.97 6.23 7.97 6.23 7.97 6.24C7.97 6.25 7.97 6.25 7.96 6.27C7.95 6.3 7.93 6.34 7.89 6.4C7.82 6.51 7.72 6.64 7.58 6.8C7.32 7.11 6.95 7.48 6.56 7.83C6.18 8.18 5.77 8.51 5.44 8.76C5.27 8.88 5.12 8.97 5 9.04C4.94 9.07 4.89 9.09 4.85 9.11C4.82 9.12 4.8 9.12 4.8 9.12C4.78 9.12 4.7 9.1 4.54 8.99C4.4 8.88 4.23 8.73 4.03 8.54C3.64 8.16 3.2 7.65 2.75 7.14L2.64 7.01C2.23 6.55 1.83 6.09 1.5 5.75C1.31 5.57 1.14 5.41 0.99 5.3C0.91 5.24 0.83 5.19 0.75 5.16C0.68 5.13 0.57 5.1 0.45 5.14C0.35 5.17 0.27 5.25 0.22 5.32C0.18 5.39 0.14 5.47 0.11 5.56C0.06 5.73 0.03 5.94 0.01 6.19C-0.03 6.69 0 7.34 0.11 8.04C0.31 9.44 0.82 11.1 1.77 12.11C2.49 12.87 3.03 13.41 4.02 13.71ZM4.58 1.71C4.54 1.73 4.51 1.74 4.49 1.76C4.5 1.79 4.52 1.82 4.55 1.87C4.64 2.01 4.77 2.18 4.95 2.38C5.31 2.78 5.81 3.27 6.32 3.77C6.4 3.85 6.49 3.93 6.57 4.02C7 4.43 7.42 4.84 7.75 5.19C7.95 5.39 8.12 5.58 8.25 5.74C8.31 5.82 8.36 5.9 8.4 5.97C8.43 6.04 8.48 6.13 8.48 6.23C8.48 6.32 8.45 6.39 8.43 6.46C8.4 6.53 8.36 6.6 8.32 6.67C8.23 6.8 8.1 6.96 7.96 7.13C7.68 7.46 7.3 7.84 6.9 8.2C6.5 8.56 6.08 8.91 5.73 9.16C5.55 9.29 5.38 9.4 5.24 9.48C5.16 9.52 5.09 9.55 5.02 9.58C4.96 9.6 4.88 9.62 4.81 9.62C4.61 9.62 4.42 9.51 4.26 9.39C4.08 9.27 3.88 9.1 3.68 8.9C3.28 8.5 2.82 7.98 2.37 7.47L2.26 7.35C1.85 6.88 1.46 6.43 1.14 6.1C0.96 5.92 0.81 5.79 0.69 5.7C0.66 5.68 0.64 5.66 0.61 5.65C0.61 5.66 0.6 5.68 0.59 5.71C0.55 5.82 0.52 6 0.51 6.23C0.48 6.68 0.5 7.29 0.6 7.97C0.8 9.33 1.29 10.87 2.14 11.76C2.85 12.52 3.31 12.97 4.16 13.23C5.04 13.49 6.36 13.54 8.78 13.4L8.9 13.39L8.98 13.48L9.08 13.59C9.15 13.66 9.25 13.76 9.38 13.9C9.64 14.17 10.01 14.57 10.48 15.05C11.4 16.03 12.67 17.36 14.07 18.81C16.88 21.72 20.18 25.1 22.21 27.01C22.37 27.15 22.45 27.35 22.45 27.55C22.44 27.93 22.43 28.29 22.42 28.65C22.34 30.74 22.27 32.61 24.08 34.28C25.17 35.29 26.69 35.77 27.99 35.93C28.64 36.01 29.21 36.01 29.64 35.96C29.85 35.93 30.01 35.89 30.12 35.84C30.16 35.83 30.19 35.81 30.21 35.8C30.2 35.77 30.18 35.73 30.15 35.68C30.07 35.55 29.93 35.38 29.75 35.18C29.4 34.78 28.9 34.29 28.38 33.79C28.3 33.71 28.22 33.62 28.13 33.54C27.71 33.13 27.28 32.72 26.95 32.37C26.75 32.16 26.58 31.97 26.46 31.81C26.4 31.74 26.34 31.66 26.3 31.58C26.27 31.52 26.23 31.43 26.23 31.33C26.23 31.24 26.25 31.16 26.28 31.1C26.31 31.03 26.35 30.96 26.39 30.89C26.48 30.75 26.6 30.6 26.74 30.43C27.03 30.1 27.41 29.72 27.81 29.36C28.2 29 28.62 28.65 28.98 28.4C29.16 28.27 29.32 28.16 29.47 28.08C29.54 28.04 29.61 28.01 29.68 27.98C29.75 27.96 29.82 27.94 29.9 27.94C30.09 27.94 30.28 28.05 30.45 28.16C30.63 28.29 30.82 28.46 31.02 28.66C31.43 29.06 31.89 29.58 32.33 30.09L32.44 30.21C32.85 30.68 33.24 31.13 33.56 31.46C33.74 31.64 33.89 31.77 34.01 31.86C34.04 31.88 34.07 31.9 34.09 31.91C34.1 31.9 34.11 31.88 34.11 31.85C34.15 31.73 34.18 31.56 34.2 31.33C34.23 30.88 34.2 30.26 34.1 29.59C33.9 28.23 33.41 26.69 32.57 25.79C31.87 25.05 31.41 24.6 30.58 24.34C29.73 24.08 28.47 24.02 26.15 24.15C25.94 24.16 25.73 24.09 25.58 23.93C23.67 22.02 20.35 18.64 17.52 15.73C16.1 14.28 14.8 12.95 13.86 11.98C13.39 11.49 13 11.1 12.74 10.82L12.25 10.33L12.25 10.22C12.25 9.79 12.27 9.35 12.29 8.92L12.29 8.92C12.29 8.72 12.3 8.52 12.31 8.32C12.33 7.7 12.33 7.1 12.26 6.52C12.12 5.37 11.71 4.29 10.62 3.28C9.54 2.27 8.01 1.79 6.71 1.63C6.07 1.55 5.49 1.55 5.07 1.6C4.86 1.63 4.69 1.67 4.58 1.71Z" fill="#0089E9" fill-opacity="1.000000" fill-rule="evenodd"/>
	<path id="Vector 28 (Stroke)" d="M26.73 1.78C27.73 0.78 28.79 0 29.9 0C31.5 0 32.37 0.9 33.35 1.9C33.49 2.05 33.63 2.2 33.78 2.35L33.79 2.36C34.39 2.95 34.97 3.54 35.4 4.15C35.84 4.78 36.14 5.45 36.14 6.23C36.14 7.32 35.57 8.23 34.84 9.06C34.47 9.47 34.05 9.88 33.63 10.29C33.59 10.33 33.54 10.37 33.5 10.41C33.12 10.78 32.73 11.15 32.36 11.54C31.55 12.4 30.33 13.07 29.15 13.72C29.08 13.76 29.01 13.8 28.94 13.84C27.67 14.54 26.49 15.22 25.82 16.08C25.17 16.92 24.7 17.75 24.13 18.89C24.07 19.01 23.95 19.05 23.87 19.05C23.8 19.05 23.74 19.03 23.7 19.01C23.61 18.98 23.51 18.91 23.41 18.84C23.2 18.69 22.91 18.45 22.59 18.17C21.94 17.59 21.11 16.78 20.3 15.95C19.49 15.11 18.7 14.26 18.15 13.59C17.88 13.25 17.66 12.96 17.52 12.73C17.45 12.62 17.4 12.51 17.37 12.41C17.36 12.36 17.34 12.29 17.36 12.22C17.38 12.13 17.43 12.05 17.53 12C17.72 11.9 17.9 11.83 18.09 11.75C18.51 11.58 18.98 11.39 19.77 10.88C20.61 10.14 21.24 9.16 21.83 8.14C21.92 7.99 22 7.84 22.09 7.68C22.59 6.81 23.1 5.93 23.72 5.21C24.05 4.84 24.38 4.45 24.71 4.06C25.38 3.26 26.06 2.45 26.73 1.78ZM25.11 4.35C24.78 4.75 24.44 5.15 24.1 5.54C23.51 6.22 23.03 7.05 22.53 7.93C22.44 8.08 22.35 8.23 22.26 8.39C21.66 9.42 21 10.47 20.08 11.27L20.07 11.28L20.05 11.29C19.21 11.83 18.67 12.05 18.24 12.23C18.11 12.28 18 12.33 17.89 12.38C17.91 12.4 17.93 12.44 17.95 12.47C18.07 12.67 18.27 12.94 18.54 13.27C19.08 13.92 19.85 14.77 20.66 15.6C21.46 16.42 22.29 17.23 22.92 17.79C23.24 18.08 23.51 18.3 23.7 18.43C23.73 18.45 23.76 18.47 23.78 18.48C24.31 17.43 24.78 16.6 25.42 15.77C26.17 14.81 27.45 14.09 28.69 13.4C28.76 13.37 28.82 13.33 28.88 13.3C30.08 12.63 31.24 11.99 32 11.19C32.37 10.8 32.77 10.42 33.16 10.05C33.2 10.01 33.24 9.97 33.28 9.93C33.71 9.52 34.11 9.12 34.47 8.73C35.17 7.93 35.64 7.14 35.64 6.23C35.64 5.59 35.39 5.01 34.99 4.44C34.59 3.86 34.03 3.31 33.43 2.7C33.27 2.54 33.12 2.39 32.98 2.24C31.99 1.23 31.28 0.5 29.9 0.5C29.01 0.5 28.08 1.14 27.08 2.13C26.42 2.79 25.77 3.57 25.11 4.35Z" fill="#0089E9" fill-opacity="1.000000" fill-rule="evenodd"/>
	<path id="Vector 29 (Stroke)" d="M13.86 20.92C13.77 20.86 13.64 20.88 13.56 20.97C10.79 24.11 8.85 25.69 7.41 26.67C6.84 27.05 6.35 27.34 5.93 27.59C5.82 27.65 5.71 27.72 5.61 27.78C5.12 28.07 4.74 28.33 4.41 28.65C3.44 29.62 2.81 30.39 2.47 30.94C2.29 31.22 2.2 31.43 2.16 31.58C2.13 31.67 2.14 31.72 2.14 31.73L4.41 34C4.41 34 4.43 34.01 4.47 34.01C4.54 34.01 4.63 33.99 4.76 33.95C5.01 33.88 5.33 33.72 5.69 33.5C6.4 33.06 7.2 32.4 7.75 31.74C8.1 31.32 8.38 30.87 8.71 30.35C9.67 28.85 11.01 26.73 15.44 22.86C15.54 22.78 15.56 22.64 15.5 22.55C15.03 21.84 14.58 21.39 13.86 20.92ZM4.41 34L4.41 34L4.41 34ZM13.18 20.64C13.41 20.38 13.82 20.3 14.14 20.5C14.91 21 15.41 21.5 15.92 22.28C16.12 22.6 16.04 23 15.77 23.24C11.4 27.06 10.11 29.09 9.16 30.58C8.82 31.12 8.52 31.6 8.13 32.06C7.54 32.76 6.7 33.46 5.95 33.92C5.58 34.15 5.21 34.33 4.91 34.43C4.76 34.48 4.6 34.51 4.47 34.51C4.33 34.51 4.18 34.47 4.06 34.35L1.78 32.07C1.61 31.9 1.62 31.65 1.67 31.45C1.73 31.23 1.86 30.97 2.04 30.67C2.42 30.08 3.08 29.28 4.06 28.3C4.43 27.93 4.86 27.65 5.35 27.35C5.46 27.29 5.57 27.22 5.68 27.15C6.1 26.91 6.57 26.63 7.12 26.25C8.53 25.3 10.44 23.75 13.18 20.64Z" fill="#0089E9" fill-opacity="1.000000" fill-rule="evenodd"/>
</svg>
