<svg width="35.500000" height="36.000000" viewBox="0 0 35.5 36" fill="none" xmlns="http://www.w3.org/2000/svg" xmlns:xlink="http://www.w3.org/1999/xlink">
	<desc>
			Created with Pixso.
	</desc>
	<defs/>
	<path id="Vector 32 (Stroke)" d="M20.33 1.84C20.3 1.37 20.14 0.92 19.77 0.59C19.35 0.2 18.69 0 17.75 0C16.8 0 16.14 0.2 15.72 0.59C15.35 0.92 15.19 1.37 15.16 1.84C14.13 1.88 13.19 2.17 12.33 2.66C10.75 3.55 9.49 5.11 8.63 6.98C7.81 8.75 7.35 10.81 7.31 12.88L6.25 12.88C6.11 12.88 6 12.99 6 13.13C6 13.27 6.11 13.38 6.25 13.38L8.36 13.38C8.39 17.28 9.17 20.4 10.5 22.67L10.5 26.57C9.58 26.61 8.52 26.91 7.45 27.33C6.27 27.79 5.06 28.41 3.98 29.06C2.89 29.71 1.91 30.38 1.21 30.94C0.86 31.22 0.57 31.48 0.36 31.7C0.26 31.8 0.17 31.91 0.11 32C0.06 32.09 0 32.2 0 32.33L0 35.26C0 35.66 0.33 36 0.73 36L34.76 36C35.16 36 35.5 35.66 35.5 35.26L35.5 32.33C35.5 32.2 35.43 32.09 35.38 32C35.32 31.91 35.23 31.8 35.13 31.7C34.92 31.48 34.63 31.22 34.28 30.94C33.58 30.38 32.6 29.71 31.51 29.06C30.43 28.41 29.22 27.79 28.04 27.33C26.97 26.91 25.91 26.61 24.99 26.57L24.99 22.67C26.32 20.4 27.1 17.28 27.13 13.38L29.24 13.38C29.38 13.38 29.49 13.27 29.49 13.13C29.49 12.99 29.38 12.88 29.24 12.88L28.18 12.88C28.14 10.81 27.68 8.75 26.86 6.98C26 5.11 24.74 3.55 23.16 2.66C22.3 2.17 21.36 1.88 20.33 1.84ZM24.5 23.43C22.87 25.74 20.6 26.98 17.99 27.05L17.99 27.84C17.99 27.84 17.99 27.84 18 27.85C18.01 27.87 18.02 27.9 18.05 27.95C18.11 28.04 18.2 28.16 18.31 28.3C18.38 28.39 18.45 28.49 18.53 28.59L18.53 28.59C18.71 28.82 18.92 29.09 19.12 29.37C19.42 29.78 19.72 30.23 19.95 30.69C20.08 30.94 20.18 31.2 20.25 31.45C21.02 30.46 21.9 29.36 22.68 28.45C23.13 27.93 23.55 27.47 23.88 27.14C24.05 26.98 24.2 26.84 24.33 26.75C24.39 26.7 24.44 26.66 24.5 26.63L24.5 23.43ZM19.83 31.82L15.66 31.82C15.71 31.54 15.82 31.23 15.98 30.91C16.19 30.49 16.48 30.06 16.77 29.66C16.97 29.39 17.16 29.13 17.34 28.91C17.42 28.8 17.5 28.7 17.57 28.6C17.64 28.52 17.69 28.44 17.75 28.37C17.8 28.44 17.85 28.52 17.92 28.6C17.99 28.7 18.07 28.8 18.15 28.91C18.33 29.13 18.52 29.39 18.72 29.66C19.01 30.06 19.3 30.49 19.51 30.91C19.67 31.23 19.79 31.54 19.83 31.82ZM15.55 32.31C15.15 33.21 15.12 34.12 15.12 35.5L20.37 35.5C20.37 34.12 20.34 33.21 19.94 32.31L15.55 32.31ZM20.87 35.5L34.76 35.5C34.89 35.5 35 35.39 35 35.26L35 32.34C35 32.34 34.99 32.31 34.96 32.27C34.93 32.21 34.86 32.13 34.77 32.03C34.59 31.84 34.32 31.6 33.98 31.33C33.29 30.78 32.34 30.12 31.26 29.48C30.19 28.85 29 28.24 27.86 27.79C26.72 27.34 25.64 27.06 24.76 27.05C24.76 27.05 24.75 27.06 24.75 27.06C24.72 27.07 24.68 27.1 24.63 27.14C24.52 27.22 24.39 27.34 24.23 27.5C23.91 27.81 23.5 28.26 23.05 28.78C22.19 29.77 21.19 31.03 20.38 32.1C20.84 33.1 20.86 34.13 20.87 35.5ZM14.62 35.5C14.63 34.13 14.65 33.1 15.11 32.1C14.3 31.03 13.3 29.77 12.44 28.78C11.99 28.26 11.58 27.81 11.26 27.5C11.1 27.34 10.97 27.22 10.86 27.14C10.81 27.1 10.77 27.07 10.74 27.06C10.74 27.06 10.73 27.05 10.73 27.05C9.85 27.06 8.77 27.34 7.63 27.79C6.49 28.24 5.3 28.85 4.23 29.48C3.15 30.12 2.2 30.78 1.51 31.33C1.17 31.6 0.9 31.84 0.72 32.03C0.63 32.13 0.56 32.21 0.53 32.27C0.5 32.31 0.49 32.33 0.49 32.34L0.49 32.34L0.49 35.26C0.49 35.39 0.6 35.5 0.73 35.5L14.62 35.5ZM15.24 31.45C14.47 30.46 13.59 29.36 12.81 28.45C12.36 27.93 11.94 27.47 11.61 27.14C11.44 26.98 11.29 26.84 11.16 26.75C11.1 26.7 11.05 26.66 10.99 26.63L10.99 23.43C12.62 25.74 14.89 26.98 17.5 27.05L17.5 27.84C17.5 27.84 17.5 27.84 17.49 27.85C17.48 27.87 17.47 27.9 17.44 27.95C17.38 28.04 17.29 28.16 17.18 28.3C17.11 28.39 17.04 28.49 16.96 28.59C16.78 28.82 16.57 29.09 16.37 29.37C16.07 29.78 15.77 30.23 15.54 30.69C15.41 30.94 15.31 31.2 15.24 31.45ZM23.2 3.26L22.33 6.75C22.29 6.91 22.41 7.07 22.58 7.06L26.25 6.85C25.49 5.32 24.45 4.05 23.2 3.26ZM9.24 6.85L12.87 7.06C13.05 7.07 13.2 6.89 13.15 6.71L12.29 3.26C11.04 4.05 10 5.32 9.24 6.85ZM15.64 2.08C15.64 1.6 15.76 1.21 16.05 0.95C16.34 0.68 16.86 0.49 17.75 0.49C18.63 0.49 19.15 0.68 19.44 0.95C19.73 1.21 19.85 1.6 19.85 2.08L19.85 4.71C19.85 4.85 19.96 4.96 20.1 4.96C20.23 4.96 20.34 4.85 20.34 4.71L20.34 2.33C21.21 2.37 22.01 2.6 22.75 3L21.85 6.63C21.73 7.12 22.11 7.58 22.61 7.55L26.48 7.34C27.23 9.01 27.65 10.94 27.68 12.88L17.75 12.88L7.81 12.88C7.84 10.94 8.26 9.01 9.01 7.34L12.84 7.55C13.36 7.58 13.76 7.09 13.63 6.59L12.74 3C13.48 2.6 14.28 2.37 15.15 2.33L15.15 4.71C15.15 4.85 15.26 4.96 15.39 4.96C15.53 4.96 15.64 4.85 15.64 4.71L15.64 2.08ZM17.75 13.38L8.85 13.38C8.88 17.25 9.66 20.29 10.96 22.47C12.56 25.18 14.97 26.56 17.75 26.56C20.52 26.56 22.93 25.18 24.53 22.47C25.83 20.29 26.61 17.25 26.64 13.38L17.75 13.38Z" fill="#0089E9" fill-opacity="1.000000" fill-rule="evenodd"/>
</svg>
