<svg width="33.500000" height="36.000000" viewBox="0 0 33.5 36" fill="none" xmlns="http://www.w3.org/2000/svg" xmlns:xlink="http://www.w3.org/1999/xlink">
	<desc>
			Created with Pixso.
	</desc>
	<defs/>
	<path id="Vector 33 (Stroke)" d="M16.44 0.16C16.48 0.1 16.59 0 16.75 0C16.9 0 17.01 0.1 17.05 0.16C17.11 0.23 17.16 0.32 17.2 0.41C17.29 0.59 17.39 0.84 17.48 1.13C17.63 1.59 17.79 2.18 17.96 2.78C18 2.93 18.05 3.09 18.09 3.24C18.3 4 18.52 4.75 18.74 5.31C18.85 5.59 18.95 5.81 19.04 5.95C19.08 6.03 19.12 6.07 19.14 6.09C19.15 6.09 19.15 6.09 19.15 6.09L24.67 6.09C24.7 6.09 24.81 6.1 24.89 6.18C25 6.29 24.98 6.42 24.96 6.48C24.94 6.53 24.91 6.57 24.89 6.6C24.87 6.63 24.85 6.66 24.82 6.68C24.72 6.79 24.55 6.92 24.36 7.07C24.02 7.33 23.56 7.67 23.07 8.02C22.97 8.09 22.88 8.16 22.78 8.23C22.18 8.66 21.58 9.11 21.12 9.47C20.89 9.66 20.71 9.82 20.58 9.95C20.52 10.01 20.48 10.06 20.45 10.09C20.45 10.1 20.45 10.1 20.45 10.1C20.45 10.11 20.46 10.13 20.47 10.16C20.48 10.22 20.51 10.3 20.54 10.4C20.61 10.59 20.71 10.85 20.83 11.15C21.01 11.59 21.23 12.11 21.46 12.65C21.54 12.85 21.63 13.05 21.71 13.24C22.03 13.99 22.33 14.73 22.55 15.3C22.65 15.59 22.74 15.84 22.79 16.04C22.81 16.13 22.83 16.22 22.84 16.3C22.84 16.34 22.84 16.38 22.84 16.43C22.83 16.47 22.81 16.55 22.75 16.62C22.66 16.71 22.56 16.71 22.5 16.71C22.44 16.7 22.39 16.69 22.35 16.67C22.28 16.64 22.19 16.59 22.11 16.53C21.93 16.41 21.7 16.23 21.44 16.01C20.92 15.57 20.25 14.96 19.57 14.35L19.5 14.28C18.84 13.69 18.19 13.1 17.67 12.65C17.39 12.42 17.16 12.22 16.98 12.09C16.89 12.03 16.82 11.98 16.77 11.95C16.76 11.95 16.75 11.94 16.75 11.94C16.74 11.94 16.73 11.95 16.72 11.95C16.67 11.98 16.6 12.03 16.51 12.09C16.33 12.22 16.1 12.42 15.82 12.65C15.3 13.1 14.65 13.69 14 14.28L13.92 14.35C13.24 14.96 12.57 15.57 12.05 16.01C11.79 16.23 11.56 16.41 11.38 16.53C11.3 16.59 11.21 16.64 11.14 16.67C11.1 16.69 11.05 16.7 10.99 16.71C10.93 16.71 10.83 16.71 10.74 16.62C10.68 16.55 10.66 16.47 10.65 16.43C10.65 16.38 10.65 16.34 10.65 16.3C10.66 16.22 10.68 16.13 10.7 16.04C10.75 15.84 10.84 15.59 10.94 15.3C11.16 14.73 11.46 13.99 11.78 13.24C11.86 13.04 11.95 12.85 12.03 12.65C12.26 12.11 12.48 11.59 12.66 11.15C12.78 10.85 12.88 10.59 12.95 10.4C12.98 10.3 13.01 10.22 13.02 10.16C13.03 10.13 13.04 10.11 13.04 10.1C13.04 10.1 13.04 10.1 13.04 10.09C13.01 10.06 12.97 10.01 12.91 9.95C12.78 9.82 12.6 9.66 12.37 9.47C11.91 9.11 11.31 8.66 10.71 8.23C10.61 8.16 10.52 8.09 10.42 8.02C9.93 7.67 9.47 7.33 9.13 7.07C8.94 6.92 8.77 6.79 8.67 6.68C8.64 6.66 8.62 6.63 8.6 6.6C8.58 6.57 8.55 6.53 8.53 6.48C8.51 6.42 8.49 6.29 8.6 6.18C8.68 6.1 8.79 6.09 8.82 6.09L14.34 6.09C14.34 6.09 14.34 6.09 14.35 6.09C14.37 6.07 14.41 6.03 14.45 5.95C14.54 5.81 14.64 5.59 14.75 5.31C14.97 4.75 15.19 4 15.4 3.24C15.44 3.09 15.49 2.93 15.53 2.78C15.7 2.18 15.86 1.59 16.01 1.13C16.1 0.84 16.2 0.59 16.29 0.41C16.33 0.32 16.38 0.23 16.44 0.16ZM14.69 6.49C14.61 6.56 14.5 6.62 14.37 6.62L9.42 6.62C9.43 6.63 9.44 6.64 9.46 6.65C9.79 6.91 10.24 7.24 10.73 7.59C10.82 7.66 10.92 7.73 11.02 7.8C11.61 8.23 12.23 8.68 12.7 9.06C12.93 9.25 13.14 9.42 13.28 9.57C13.35 9.65 13.42 9.72 13.47 9.79C13.51 9.85 13.57 9.95 13.57 10.07C13.57 10.14 13.55 10.23 13.53 10.3C13.51 10.38 13.48 10.47 13.45 10.57C13.37 10.78 13.27 11.05 13.15 11.35C12.97 11.79 12.74 12.32 12.51 12.86C12.43 13.06 12.35 13.25 12.26 13.45C11.95 14.2 11.65 14.93 11.44 15.49C11.37 15.66 11.32 15.82 11.28 15.95C11.4 15.86 11.54 15.74 11.71 15.6C12.22 15.17 12.88 14.57 13.56 13.96L13.64 13.88C14.29 13.29 14.95 12.7 15.48 12.24C15.76 12.01 16 11.81 16.2 11.66C16.3 11.59 16.39 11.53 16.47 11.49C16.51 11.46 16.55 11.44 16.59 11.43C16.63 11.41 16.68 11.4 16.75 11.4C16.81 11.4 16.86 11.41 16.9 11.43C16.94 11.44 16.98 11.46 17.02 11.49C17.1 11.53 17.19 11.59 17.29 11.66C17.49 11.81 17.73 12.01 18.01 12.24C18.54 12.7 19.2 13.29 19.85 13.88L19.93 13.96C20.61 14.57 21.27 15.17 21.78 15.6C21.95 15.74 22.09 15.86 22.21 15.95C22.17 15.82 22.12 15.66 22.05 15.49C21.84 14.93 21.54 14.2 21.23 13.45C21.14 13.25 21.06 13.06 20.98 12.86C20.75 12.32 20.52 11.79 20.34 11.35C20.22 11.05 20.12 10.78 20.04 10.57C20.01 10.47 19.98 10.38 19.96 10.3C19.94 10.23 19.92 10.14 19.92 10.07C19.92 9.95 19.98 9.85 20.02 9.79C20.07 9.72 20.14 9.65 20.21 9.57C20.35 9.42 20.56 9.25 20.79 9.06C21.26 8.68 21.88 8.23 22.47 7.8C22.57 7.73 22.67 7.66 22.76 7.59C23.25 7.24 23.71 6.91 24.03 6.65C24.05 6.64 24.06 6.63 24.07 6.62L19.12 6.62C18.99 6.62 18.88 6.56 18.8 6.49C18.72 6.42 18.65 6.33 18.59 6.24C18.47 6.05 18.36 5.79 18.25 5.5C18.02 4.92 17.8 4.14 17.58 3.38C17.54 3.23 17.49 3.07 17.45 2.92C17.28 2.32 17.12 1.75 16.98 1.3C16.89 1.03 16.81 0.82 16.75 0.67C16.68 0.82 16.6 1.03 16.51 1.3C16.37 1.75 16.21 2.32 16.04 2.92C16 3.07 15.95 3.23 15.91 3.38C15.69 4.14 15.47 4.92 15.25 5.5C15.13 5.79 15.02 6.05 14.9 6.24C14.84 6.33 14.77 6.42 14.69 6.49ZM10.76 1.65C10.87 1.56 11.03 1.57 11.13 1.68L12.98 3.8C13.08 3.91 13.06 4.08 12.96 4.17C12.85 4.27 12.68 4.26 12.58 4.15L10.73 2.03C10.64 1.92 10.65 1.75 10.76 1.65ZM22.73 1.65C22.84 1.75 22.85 1.92 22.76 2.03L20.91 4.15C20.81 4.26 20.64 4.27 20.54 4.17C20.43 4.08 20.41 3.91 20.51 3.8L22.36 1.68C22.46 1.57 22.62 1.56 22.73 1.65ZM7.5 11.13C7.5 10.99 7.61 10.87 7.76 10.87L10.4 10.87C10.55 10.87 10.67 10.99 10.67 11.13C10.67 11.28 10.55 11.4 10.4 11.4L7.76 11.4C7.61 11.4 7.5 11.28 7.5 11.13ZM22.82 11.13C22.82 10.99 22.94 10.87 23.09 10.87L25.73 10.87C25.88 10.87 26 10.99 26 11.13C26 11.28 25.88 11.4 25.73 11.4L23.09 11.4C22.94 11.4 22.82 11.28 22.82 11.13ZM16.75 14.05C16.89 14.05 17.01 14.17 17.01 14.31L17.01 17.23C17.01 17.38 16.89 17.5 16.75 17.5C16.6 17.5 16.48 17.38 16.48 17.23L16.48 14.31C16.48 14.17 16.6 14.05 16.75 14.05Z" fill="#0089E9" fill-opacity="1.000000" fill-rule="evenodd"/>
	<path id="Vector 32 (Stroke)" d="M8.76 20.16C8.97 20.06 9.18 20 9.37 20L20.1 20C20.56 20 21.03 20.15 21.39 20.51C21.75 20.87 21.97 21.41 21.97 22.13C21.97 22.85 21.75 23.39 21.39 23.75C21.03 24.11 20.56 24.26 20.1 24.26L13.39 24.26C13.05 24.26 12.72 24.38 12.48 24.62C12.24 24.86 12.06 25.25 12.06 25.86C12.06 26.47 12.24 26.87 12.48 27.11C12.72 27.35 13.05 27.46 13.39 27.46L22.77 27.46C22.8 27.46 22.87 27.45 22.97 27.4C23.06 27.36 23.18 27.29 23.32 27.2C23.6 27.01 23.93 26.74 24.31 26.4C25.06 25.74 25.95 24.84 26.84 23.94C26.94 23.84 27.04 23.74 27.13 23.64C27.92 22.84 28.69 22.06 29.34 21.46C29.7 21.12 30.03 20.83 30.31 20.62C30.45 20.52 30.58 20.43 30.7 20.37C30.82 20.31 30.95 20.26 31.08 20.26C31.51 20.26 32.11 20.33 32.61 20.68C33.13 21.03 33.5 21.66 33.5 22.66C33.5 23 33.35 23.37 33.16 23.74C32.96 24.11 32.69 24.51 32.4 24.89C31.82 25.66 31.15 26.41 30.74 26.84C27.8 30.04 25.83 31.93 24.02 33.02C22.19 34.12 20.52 34.39 18.22 34.39L4.28 34.39L4.28 35.2C4.28 35.64 3.92 36 3.48 36L0.8 36C0.35 36 0 35.64 0 35.2L0 22.93C0 22.49 0.35 22.13 0.8 22.13L3.48 22.13C3.92 22.13 4.28 22.49 4.28 22.93L4.28 23.1C4.29 23.1 4.3 23.09 4.31 23.09C4.47 23.01 4.67 22.89 4.89 22.74C5.28 22.49 5.73 22.16 6.2 21.82C6.28 21.76 6.36 21.7 6.44 21.65C6.99 21.25 7.56 20.84 8.06 20.53C8.31 20.38 8.55 20.25 8.76 20.16ZM4.28 23.68L4.28 33.86L18.22 33.86C20.47 33.86 22.02 33.6 23.74 32.57C25.48 31.52 27.4 29.68 30.35 26.48C30.75 26.05 31.41 25.32 31.97 24.57C32.25 24.2 32.5 23.83 32.68 23.49C32.87 23.14 32.96 22.86 32.96 22.66C32.96 21.8 32.66 21.36 32.3 21.11C31.93 20.86 31.46 20.8 31.08 20.8C31.08 20.8 31.07 20.8 31.05 20.8C31.03 20.81 30.99 20.82 30.95 20.85C30.87 20.89 30.76 20.96 30.63 21.05C30.38 21.24 30.06 21.51 29.7 21.85C29.07 22.44 28.3 23.22 27.52 24.01C27.42 24.11 27.32 24.21 27.22 24.32C26.33 25.21 25.43 26.12 24.67 26.8C24.28 27.14 23.93 27.43 23.62 27.64C23.47 27.74 23.32 27.83 23.19 27.89C23.06 27.95 22.91 28 22.77 28L13.39 28C12.93 28 12.46 27.84 12.1 27.48C11.74 27.12 11.52 26.58 11.52 25.86C11.52 25.14 11.74 24.6 12.1 24.24C12.46 23.88 12.93 23.73 13.39 23.73L20.1 23.73C20.44 23.73 20.77 23.61 21.01 23.37C21.25 23.13 21.43 22.74 21.43 22.13C21.43 21.52 21.25 21.12 21.01 20.88C20.77 20.64 20.44 20.53 20.1 20.53L9.37 20.53C9.3 20.53 9.17 20.56 8.98 20.64C8.79 20.72 8.58 20.84 8.34 20.99C7.86 21.28 7.31 21.68 6.75 22.08C6.67 22.13 6.59 22.19 6.52 22.25C6.05 22.59 5.59 22.92 5.19 23.18C4.96 23.34 4.74 23.47 4.55 23.56C4.47 23.61 4.37 23.65 4.28 23.68ZM0.8 22.66C0.65 22.66 0.53 22.78 0.53 22.93L0.53 35.2C0.53 35.34 0.65 35.46 0.8 35.46L3.48 35.46C3.63 35.46 3.75 35.34 3.75 35.2L3.75 22.93C3.75 22.78 3.63 22.66 3.48 22.66L0.8 22.66Z" fill="#0089E9" fill-opacity="1.000000" fill-rule="evenodd"/>
</svg>
