<svg width="24.000000" height="24.000000" viewBox="0 0 24 24" fill="none" xmlns="http://www.w3.org/2000/svg" xmlns:xlink="http://www.w3.org/1999/xlink">
	<desc>
			Created with Pixso.
	</desc>
	<defs/>
	<circle id="Ellipse 20" cx="12.000000" cy="12.000000" r="11.500000" stroke="#0089E9" stroke-opacity="1.000000" stroke-width="1.000000"/>
	<path id="Vector 24" d="M12.5 8.7L14.47 10.68C14.67 10.87 14.98 10.87 15.18 10.68C15.37 10.48 15.37 10.17 15.18 9.97L12.35 7.14C12.15 6.94 11.84 6.94 11.64 7.14L8.81 9.97C8.62 10.17 8.62 10.48 8.81 10.68C9.01 10.87 9.32 10.87 9.52 10.68L11.5 8.7L11.5 16.5C11.5 16.78 11.72 17 12 17C12.27 17 12.5 16.78 12.5 16.5L12.5 8.7Z" fill="#0089E9" fill-opacity="1.000000" fill-rule="evenodd"/>
</svg>
