<svg width="36.000000" height="21.500000" viewBox="0 0 36 21.5" fill="none" xmlns="http://www.w3.org/2000/svg" xmlns:xlink="http://www.w3.org/1999/xlink">
	<desc>
			Created with Pixso.
	</desc>
	<defs/>
	<path id="Vector 29 (Stroke)" d="M3.4 0.55C3.24 0.55 3.11 0.68 3.11 0.83L3.11 11.16C3.11 11.32 2.99 11.44 2.83 11.44C2.67 11.44 2.55 11.32 2.55 11.16L2.55 0.83C2.55 0.37 2.93 0 3.4 0L25.51 0C25.98 0 26.36 0.37 26.36 0.83L26.36 2.51L32.03 2.51C32.5 2.51 32.88 2.88 32.88 3.35L32.88 5.03L32.88 5.03L32.88 5.04L32.88 5.06C32.88 5.08 32.87 5.11 32.87 5.14C32.87 5.21 32.87 5.31 32.87 5.42C32.87 5.64 32.87 5.91 32.88 6.12C32.91 6.82 33.04 7.35 33.2 7.89C33.24 8.04 33.29 8.2 33.34 8.37C33.45 8.71 33.56 9.08 33.67 9.5C35.02 9.6 36 10.64 36 12L36 17.59C36 18.05 35.61 18.42 35.14 18.42L33.44 18.42C33.44 20.12 32.05 21.5 30.33 21.5C28.6 21.5 27.21 20.12 27.21 18.42L13.32 18.42C13.32 20.12 11.92 21.5 10.2 21.5C8.48 21.5 7.08 20.12 7.08 18.42L3.4 18.42C2.93 18.42 2.55 18.05 2.55 17.59L2.55 15.91L0.28 15.91C0.12 15.91 0 15.79 0 15.63C0 15.48 0.12 15.35 0.28 15.35L6.23 15.35C6.39 15.35 6.51 15.48 6.51 15.63C6.51 15.79 6.39 15.91 6.23 15.91L3.11 15.91L3.11 17.59C3.11 17.74 3.24 17.87 3.4 17.87L7.13 17.87C7.4 16.44 8.67 15.35 10.2 15.35C11.73 15.35 13 16.44 13.27 17.87L25.79 17.87L25.79 13.4C25.79 13.24 25.92 13.12 26.07 13.12C26.23 13.12 26.36 13.24 26.36 13.4L26.36 17.87L27.26 17.87C27.53 16.44 28.8 15.35 30.33 15.35C31.85 15.35 33.13 16.44 33.39 17.87L35.14 17.87C35.3 17.87 35.43 17.74 35.43 17.59L35.43 14.79L34.01 14.79C33.54 14.79 33.16 14.42 33.16 13.96L33.16 11.72L35.41 11.72C35.29 10.74 34.5 10.05 33.44 10.05L26.36 10.05L26.36 11.16C26.36 11.32 26.23 11.44 26.07 11.44C25.92 11.44 25.79 11.32 25.79 11.16L25.79 0.83C25.79 0.68 25.66 0.55 25.51 0.55L3.4 0.55ZM26.36 9.49L33.08 9.49C32.99 9.15 32.9 8.85 32.81 8.55C32.75 8.38 32.7 8.21 32.65 8.04C32.49 7.48 32.35 6.91 32.31 6.15C32.3 5.93 32.3 5.64 32.3 5.41C32.3 5.37 32.3 5.34 32.3 5.3L26.36 5.3L26.36 9.49ZM26.36 4.74L32.31 4.74L32.31 3.35C32.31 3.19 32.18 3.07 32.03 3.07L26.36 3.07L26.36 4.74ZM35.43 12.28L33.73 12.28L33.73 13.96C33.73 14.11 33.85 14.24 34.01 14.24L35.43 14.24L35.43 12.28ZM19.75 5.38C19.87 5.49 19.87 5.67 19.75 5.78L14.49 10.97C14.15 11.29 13.62 11.29 13.28 10.97L10.28 8.01C10.17 7.9 10.17 7.72 10.28 7.62C10.39 7.51 10.57 7.51 10.68 7.62L13.68 10.57C13.79 10.68 13.97 10.68 14.09 10.57L19.35 5.38C19.46 5.27 19.64 5.27 19.75 5.38ZM1.13 13.4C1.13 13.24 1.26 13.12 1.41 13.12L9.07 13.12C9.22 13.12 9.35 13.24 9.35 13.4C9.35 13.55 9.22 13.68 9.07 13.68L1.41 13.68C1.26 13.68 1.13 13.55 1.13 13.4ZM10.2 15.91C8.88 15.91 7.79 16.9 7.66 18.17C7.65 18.25 7.65 18.34 7.65 18.42C7.65 19.81 8.79 20.94 10.2 20.94C11.61 20.94 12.75 19.81 12.75 18.42C12.75 18.34 12.75 18.25 12.74 18.17C12.61 16.9 11.52 15.91 10.2 15.91ZM14.74 15.63C14.74 15.48 14.86 15.35 15.02 15.35L23.52 15.35C23.68 15.35 23.81 15.48 23.81 15.63C23.81 15.79 23.68 15.91 23.52 15.91L15.02 15.91C14.86 15.91 14.74 15.79 14.74 15.63ZM30.33 15.91C29 15.91 27.91 16.9 27.79 18.17C27.78 18.25 27.77 18.34 27.77 18.42C27.77 19.81 28.92 20.94 30.33 20.94C31.73 20.94 32.88 19.81 32.88 18.42C32.88 18.34 32.87 18.25 32.86 18.17C32.74 16.9 31.65 15.91 30.33 15.91ZM10.2 18.14C10.04 18.14 9.92 18.27 9.92 18.42C9.92 18.58 10.04 18.7 10.2 18.7C10.36 18.7 10.48 18.58 10.48 18.42C10.48 18.27 10.36 18.14 10.2 18.14ZM9.35 18.42C9.35 17.96 9.73 17.59 10.2 17.59C10.67 17.59 11.05 17.96 11.05 18.42C11.05 18.89 10.67 19.26 10.2 19.26C9.73 19.26 9.35 18.89 9.35 18.42ZM30.33 18.14C30.17 18.14 30.04 18.27 30.04 18.42C30.04 18.58 30.17 18.7 30.33 18.7C30.48 18.7 30.61 18.58 30.61 18.42C30.61 18.27 30.48 18.14 30.33 18.14ZM29.48 18.42C29.48 17.96 29.86 17.59 30.33 17.59C30.8 17.59 31.18 17.96 31.18 18.42C31.18 18.89 30.8 19.26 30.33 19.26C29.86 19.26 29.48 18.89 29.48 18.42Z" fill="#FFFFFF" fill-opacity="1.000000" fill-rule="evenodd"/>
</svg>
