<svg width="33.000000" height="33.000000" viewBox="0 0 33 33" fill="none" xmlns="http://www.w3.org/2000/svg" xmlns:xlink="http://www.w3.org/1999/xlink">
	<desc>
			Created with Pixso.
	</desc>
	<defs/>
	<path id="Vector 28 (Stroke)" d="M4.76 0.04C5.77 0.18 6.6 0.67 7.1 1.03C7.57 1.37 7.55 2 7.18 2.37L4.97 4.56L6.12 5.6C8.85 3.17 12.46 1.69 16.42 1.69C20.45 1.69 24.13 3.22 26.88 5.73L28.02 4.69L25.81 2.51C25.44 2.14 25.42 1.5 25.89 1.16C26.39 0.8 27.22 0.31 28.23 0.17C29.25 0.03 30.44 0.25 31.6 1.27C32.77 2.3 33.07 3.5 32.98 4.59C32.89 5.65 32.41 6.59 32.06 7.16C31.74 7.68 31.05 7.7 30.65 7.3L28.48 5.14L27.34 6.17C30.15 8.95 31.88 12.78 31.88 17.02C31.88 22.75 28.72 27.74 24.03 30.38L26 32.46C26.12 32.59 26.11 32.79 25.98 32.91C25.85 33.03 25.65 33.02 25.53 32.89L23.44 30.69C21.33 31.76 18.95 32.36 16.42 32.36C13.89 32.36 11.5 31.75 9.38 30.68L9.31 30.75L9.31 30.76L7.32 32.89C7.2 33.02 6.99 33.03 6.86 32.91C6.73 32.79 6.72 32.59 6.85 32.46L8.8 30.37C4.12 27.73 0.96 22.74 0.96 17.02C0.96 12.71 2.76 8.82 5.64 6.03L4.51 5.01L2.34 7.17C1.94 7.56 1.25 7.55 0.93 7.03C0.58 6.46 0.1 5.52 0.01 4.45C-0.08 3.37 0.22 2.17 1.39 1.13C2.55 0.11 3.74 -0.11 4.76 0.04ZM4.67 0.67C3.83 0.55 2.83 0.72 1.82 1.61C0.81 2.5 0.57 3.49 0.65 4.4C0.73 5.32 1.15 6.16 1.48 6.69C1.55 6.82 1.74 6.86 1.88 6.72L6.72 1.92C6.85 1.79 6.82 1.62 6.72 1.54C6.26 1.21 5.53 0.79 4.67 0.67ZM28.32 0.8C27.46 0.92 26.73 1.35 26.27 1.68C26.17 1.75 26.14 1.92 26.27 2.05L31.11 6.85C31.25 6.99 31.44 6.95 31.51 6.83C31.84 6.3 32.26 5.45 32.34 4.53C32.42 3.63 32.18 2.63 31.17 1.75C30.16 0.85 29.16 0.68 28.32 0.8ZM16.42 2.33C12.53 2.33 8.98 3.82 6.33 6.26C3.42 8.95 1.61 12.77 1.61 17.02C1.61 22.65 4.79 27.53 9.47 30C11.54 31.1 13.91 31.72 16.42 31.72C18.93 31.72 21.29 31.1 23.36 30.01C28.05 27.54 31.24 22.65 31.24 17.02C31.24 12.84 29.48 9.07 26.65 6.4C23.99 3.88 20.39 2.33 16.42 2.33ZM3.54 17.02C3.54 9.97 9.31 4.25 16.42 4.25C23.54 4.25 29.31 9.97 29.31 17.02C29.31 24.08 23.54 29.8 16.42 29.8C9.31 29.8 3.54 24.08 3.54 17.02ZM16.42 4.89C9.66 4.89 4.18 10.32 4.18 17.02C4.18 23.73 9.66 29.16 16.42 29.16C23.18 29.16 28.66 23.73 28.66 17.02C28.66 10.32 23.18 4.89 16.42 4.89ZM16.42 8.4C16.6 8.4 16.74 8.54 16.74 8.72L16.74 14.49C17.91 14.63 18.83 15.55 18.98 16.7L22.54 16.7C22.72 16.7 22.86 16.85 22.86 17.02C22.86 17.2 22.72 17.34 22.54 17.34L18.98 17.34C18.82 18.6 17.74 19.58 16.42 19.58C15 19.58 13.85 18.44 13.85 17.02C13.85 15.72 14.83 14.65 16.1 14.49L16.1 8.72C16.1 8.54 16.24 8.4 16.42 8.4ZM16.42 15.11C15.36 15.11 14.49 15.97 14.49 17.02C14.49 18.08 15.36 18.94 16.42 18.94C17.49 18.94 18.36 18.08 18.36 17.02C18.36 15.97 17.49 15.11 16.42 15.11Z" fill="#FFFFFF" fill-opacity="1.000000" fill-rule="evenodd"/>
</svg>
