<svg width="28.500000" height="35.000000" viewBox="0 0 28.5 35" fill="none" xmlns="http://www.w3.org/2000/svg" xmlns:xlink="http://www.w3.org/1999/xlink">
	<desc>
			Created with Pixso.
	</desc>
	<defs/>
	<path id="Vector 30 (Stroke)" d="M12.36 0.46C12.89 0.16 13.49 0 14.25 0C15 0 15.6 0.16 16.13 0.46C16.65 0.75 17.09 1.16 17.54 1.62C17.68 1.76 17.81 1.9 17.95 2.05C18.75 2.88 19.68 3.86 21.22 4.79C21.97 5.25 22.77 5.53 23.58 5.75C23.87 5.84 24.18 5.91 24.47 5.99C24.97 6.12 25.45 6.24 25.89 6.38C26.6 6.62 27.25 6.94 27.72 7.47C28.2 8.02 28.46 8.76 28.46 9.79C28.46 11.78 28.15 12.74 27.85 13.52C27.82 13.59 27.79 13.67 27.76 13.74C27.5 14.37 27.3 14.89 27.32 15.93C27.35 16.88 27.59 17.52 27.85 18.22C27.86 18.26 27.88 18.31 27.9 18.35C28.18 19.11 28.46 19.95 28.46 21.25C28.46 22.78 27.94 23.75 27.09 24.41C26.37 24.97 25.43 25.3 24.47 25.6L24.6 25.76C24.83 26.06 25.17 26.48 25.57 26.99C26.36 28.01 27.41 29.33 28.4 30.59C28.44 30.64 28.53 30.76 28.48 30.93C28.43 31.1 28.26 31.15 28.21 31.16C28.13 31.18 28.05 31.18 27.98 31.18C27.91 31.17 27.83 31.17 27.74 31.16C27.46 31.12 27.08 31.04 26.67 30.96C26.56 30.94 26.45 30.92 26.33 30.9C25.79 30.79 25.22 30.69 24.74 30.65C24.49 30.63 24.28 30.62 24.11 30.64C23.93 30.65 23.83 30.69 23.79 30.72C23.74 30.75 23.67 30.83 23.59 30.97C23.51 31.12 23.44 31.3 23.37 31.52C23.22 31.96 23.11 32.5 23 33.01C22.98 33.15 22.95 33.29 22.93 33.42C22.86 33.78 22.79 34.11 22.73 34.36C22.69 34.52 22.64 34.68 22.58 34.79C22.55 34.83 22.48 34.95 22.34 34.98C22.15 35.03 22.02 34.91 21.98 34.85C21.13 33.73 20.03 32.33 19.14 31.22C18.69 30.66 18.3 30.17 18.02 29.82C17.92 29.7 17.84 29.59 17.77 29.51C17.76 29.51 17.76 29.52 17.75 29.52C17.29 29.99 16.87 30.41 16.39 30.73C15.81 31.1 15.16 31.32 14.25 31.32C13.33 31.32 12.68 31.1 12.1 30.73C11.62 30.41 11.2 29.99 10.74 29.52C10.73 29.52 10.73 29.51 10.72 29.51C10.65 29.59 10.57 29.7 10.47 29.82C10.19 30.17 9.8 30.66 9.35 31.22C8.46 32.33 7.36 33.73 6.51 34.85C6.47 34.91 6.34 35.03 6.15 34.98C6.01 34.95 5.94 34.83 5.91 34.79C5.85 34.68 5.8 34.52 5.76 34.36C5.7 34.11 5.63 33.78 5.56 33.42C5.54 33.29 5.51 33.15 5.49 33.01C5.38 32.5 5.27 31.96 5.12 31.52C5.05 31.3 4.98 31.12 4.9 30.97C4.82 30.83 4.75 30.75 4.7 30.72C4.66 30.69 4.56 30.65 4.38 30.64C4.21 30.62 4 30.63 3.75 30.65C3.27 30.69 2.7 30.79 2.16 30.9C2.04 30.92 1.93 30.94 1.82 30.96C1.41 31.04 1.03 31.12 0.75 31.16C0.66 31.17 0.58 31.17 0.51 31.18C0.44 31.18 0.36 31.18 0.28 31.16C0.23 31.15 0.06 31.1 0.01 30.93C-0.04 30.76 0.05 30.64 0.09 30.59C1.08 29.33 2.13 28.01 2.92 26.99C3.32 26.48 3.66 26.06 3.89 25.76L4.02 25.6C3.06 25.3 2.12 24.97 1.4 24.41C0.55 23.75 0.03 22.78 0.03 21.25C0.03 19.95 0.31 19.11 0.59 18.35C0.61 18.31 0.63 18.26 0.64 18.22C0.9 17.52 1.14 16.88 1.17 15.93C1.19 14.89 0.99 14.37 0.73 13.74C0.7 13.67 0.67 13.59 0.64 13.52C0.34 12.74 0.03 11.78 0.03 9.79C0.03 8.76 0.29 8.02 0.77 7.47C1.24 6.94 1.89 6.62 2.6 6.38C3.04 6.24 3.52 6.12 4.02 5.99C4.31 5.91 4.62 5.84 4.91 5.75C5.72 5.53 6.52 5.25 7.27 4.79C8.81 3.86 9.74 2.88 10.54 2.05C10.68 1.9 10.81 1.76 10.95 1.62C11.4 1.16 11.84 0.75 12.36 0.46ZM4.57 25.18L4.66 25.21C5.61 25.5 6.64 25.81 7.56 26.33C9.17 27.23 10.14 28.13 10.9 28.89C10.99 28.97 11.07 29.06 11.15 29.14C11.62 29.6 11.99 29.98 12.42 30.26C12.9 30.58 13.44 30.76 14.25 30.76C15.05 30.76 15.59 30.58 16.07 30.26C16.5 29.98 16.87 29.6 17.34 29.14C17.42 29.06 17.5 28.97 17.59 28.89C18.35 28.13 19.32 27.23 20.93 26.33C21.85 25.8 22.88 25.49 23.83 25.21C23.86 25.2 23.89 25.19 23.92 25.18C25.03 24.85 26.02 24.54 26.74 23.97C27.43 23.43 27.89 22.63 27.89 21.25C27.89 20.04 27.64 19.28 27.36 18.54C27.35 18.5 27.33 18.45 27.31 18.4C27.05 17.7 26.79 16.99 26.76 15.95C26.72 14.79 26.97 14.18 27.23 13.53C27.26 13.46 27.29 13.39 27.32 13.31C27.6 12.6 27.89 11.71 27.89 9.79C27.89 8.86 27.66 8.26 27.29 7.84C26.92 7.41 26.38 7.14 25.71 6.91C25.28 6.77 24.84 6.66 24.37 6.54C24.06 6.46 23.75 6.38 23.42 6.29C22.6 6.06 21.73 5.76 20.92 5.27C19.31 4.29 18.33 3.26 17.53 2.42C17.39 2.28 17.26 2.14 17.13 2.01C16.69 1.56 16.3 1.2 15.85 0.95C15.41 0.7 14.91 0.55 14.25 0.55C13.58 0.55 13.08 0.7 12.64 0.95C12.19 1.2 11.8 1.56 11.36 2.01C11.23 2.14 11.1 2.28 10.96 2.42C10.16 3.26 9.18 4.29 7.57 5.27C6.76 5.76 5.89 6.06 5.07 6.29C4.74 6.38 4.43 6.46 4.12 6.54C3.65 6.66 3.21 6.77 2.79 6.91C2.11 7.14 1.57 7.41 1.2 7.84C0.83 8.26 0.6 8.86 0.6 9.79C0.6 11.71 0.89 12.6 1.17 13.31C1.2 13.39 1.23 13.46 1.26 13.53C1.52 14.18 1.77 14.79 1.73 15.95C1.7 16.99 1.44 17.7 1.18 18.4C1.16 18.45 1.14 18.5 1.13 18.54C0.85 19.28 0.6 20.04 0.6 21.25C0.6 22.63 1.06 23.43 1.75 23.97C2.47 24.54 3.46 24.85 4.57 25.18ZM4.6 25.77L4.34 26.1C4.11 26.4 3.77 26.83 3.37 27.33C2.65 28.25 1.73 29.43 0.82 30.58C1.06 30.54 1.36 30.48 1.7 30.42C1.81 30.4 1.93 30.37 2.05 30.35C2.59 30.24 3.19 30.14 3.7 30.09C3.96 30.07 4.21 30.06 4.43 30.08C4.64 30.1 4.85 30.14 5.02 30.25C5.18 30.36 5.31 30.53 5.41 30.71C5.5 30.9 5.59 31.12 5.67 31.35C5.82 31.83 5.94 32.39 6.04 32.91C6.07 33.05 6.1 33.2 6.13 33.33C6.19 33.67 6.25 33.96 6.3 34.19C7.12 33.13 8.1 31.89 8.91 30.87C9.35 30.31 9.75 29.82 10.03 29.47C10.15 29.32 10.24 29.2 10.32 29.11C9.61 28.41 8.7 27.61 7.28 26.81C6.45 26.34 5.52 26.05 4.6 25.77ZM18.17 29.11C18.25 29.2 18.34 29.32 18.46 29.47C18.75 29.82 19.14 30.31 19.58 30.87C20.39 31.89 21.37 33.13 22.19 34.19C22.24 33.96 22.3 33.67 22.36 33.33C22.39 33.2 22.42 33.05 22.45 32.91C22.55 32.39 22.67 31.83 22.82 31.35C22.9 31.12 22.99 30.9 23.08 30.71C23.18 30.53 23.31 30.36 23.47 30.25C23.64 30.14 23.85 30.1 24.06 30.08C24.28 30.06 24.53 30.07 24.79 30.09C25.3 30.14 25.9 30.24 26.44 30.35C26.56 30.37 26.68 30.4 26.79 30.42C27.13 30.48 27.43 30.54 27.67 30.58C26.76 29.43 25.84 28.25 25.12 27.33C24.72 26.83 24.38 26.4 24.15 26.1L23.89 25.77C22.97 26.05 22.04 26.34 21.21 26.81C19.79 27.61 18.88 28.41 18.17 29.11ZM3.16 15.94C3.16 9.91 8.12 5.03 14.25 5.03C20.37 5.03 25.33 9.91 25.33 15.94C25.33 21.96 20.37 26.85 14.25 26.85C8.12 26.85 3.16 21.96 3.16 15.94ZM14.25 5.59C8.43 5.59 3.72 10.22 3.72 15.94C3.72 21.65 8.43 26.29 14.25 26.29C20.06 26.29 24.77 21.65 24.77 15.94C24.77 10.22 20.06 5.59 14.25 5.59ZM13.95 8.78C14.02 8.73 14.12 8.67 14.25 8.67C14.37 8.67 14.47 8.73 14.54 8.78C14.6 8.84 14.66 8.91 14.71 8.97C14.8 9.11 14.88 9.3 14.96 9.5C15.13 9.92 15.29 10.46 15.45 11C15.5 11.18 15.55 11.36 15.6 11.54C15.7 11.9 15.79 12.23 15.88 12.52C15.95 12.74 16 12.91 16.06 13.04C16.08 13.11 16.11 13.16 16.12 13.19L16.13 13.19L16.13 13.19C16.17 13.2 16.22 13.21 16.3 13.21C16.45 13.22 16.66 13.23 16.91 13.22C17.24 13.22 17.63 13.21 18.04 13.2C18.24 13.19 18.44 13.18 18.64 13.18C19.26 13.16 19.87 13.15 20.34 13.18C20.57 13.2 20.78 13.22 20.95 13.27C21.03 13.3 21.12 13.33 21.19 13.39C21.27 13.45 21.35 13.55 21.35 13.7C21.35 13.81 21.31 13.9 21.28 13.96C21.24 14.03 21.18 14.1 21.13 14.17C21.01 14.3 20.86 14.44 20.68 14.6C20.4 14.84 20.04 15.12 19.68 15.41C19.58 15.49 19.49 15.56 19.4 15.63C18.94 16 18.49 16.37 18.15 16.69C17.98 16.86 17.85 17 17.76 17.12C17.67 17.26 17.66 17.32 17.66 17.34C17.66 17.51 17.72 17.82 17.83 18.24C17.91 18.53 18 18.85 18.09 19.17C18.13 19.3 18.17 19.44 18.2 19.57C18.33 20.02 18.45 20.47 18.52 20.83C18.55 21 18.57 21.17 18.57 21.31C18.57 21.38 18.57 21.45 18.55 21.52C18.53 21.59 18.49 21.68 18.41 21.75C18.3 21.83 18.18 21.84 18.11 21.83C18.03 21.83 17.95 21.81 17.88 21.78C17.74 21.73 17.57 21.64 17.39 21.54C17.04 21.34 16.6 21.05 16.16 20.75C16.09 20.71 16.03 20.66 15.96 20.62C15.58 20.36 15.22 20.12 14.91 19.92C14.72 19.81 14.56 19.72 14.44 19.65C14.37 19.62 14.32 19.6 14.29 19.59C14.26 19.58 14.25 19.58 14.25 19.58C14.24 19.58 14.23 19.58 14.2 19.59C14.17 19.6 14.12 19.62 14.05 19.65C13.93 19.72 13.77 19.81 13.58 19.92C13.27 20.12 12.91 20.36 12.53 20.62C12.46 20.66 12.4 20.71 12.33 20.75C11.89 21.05 11.45 21.34 11.1 21.54C10.92 21.64 10.75 21.73 10.61 21.78C10.54 21.81 10.46 21.83 10.38 21.83C10.31 21.84 10.19 21.83 10.08 21.75C10 21.68 9.96 21.59 9.94 21.52C9.92 21.45 9.92 21.38 9.92 21.31C9.92 21.17 9.94 21 9.97 20.83C10.04 20.47 10.16 20.02 10.29 19.57C10.32 19.44 10.36 19.3 10.4 19.17C10.49 18.85 10.58 18.53 10.66 18.24C10.77 17.82 10.83 17.51 10.83 17.34C10.83 17.32 10.82 17.26 10.73 17.12C10.64 17 10.51 16.86 10.34 16.69C10 16.37 9.55 16 9.09 15.63C9 15.56 8.91 15.49 8.81 15.41C8.45 15.12 8.09 14.84 7.81 14.6C7.63 14.44 7.48 14.3 7.36 14.17C7.31 14.1 7.25 14.03 7.21 13.96C7.18 13.9 7.14 13.81 7.14 13.7C7.14 13.55 7.22 13.45 7.3 13.39C7.37 13.33 7.46 13.3 7.54 13.27C7.71 13.22 7.92 13.2 8.15 13.18C8.62 13.15 9.23 13.16 9.85 13.18C10.05 13.18 10.25 13.19 10.45 13.2C10.86 13.21 11.25 13.22 11.58 13.22C11.83 13.23 12.04 13.22 12.19 13.21C12.27 13.21 12.32 13.2 12.36 13.19L12.36 13.19L12.37 13.19C12.38 13.16 12.41 13.11 12.43 13.04C12.49 12.91 12.54 12.74 12.61 12.52C12.7 12.23 12.79 11.9 12.89 11.54C12.94 11.36 12.99 11.18 13.04 11C13.2 10.46 13.36 9.92 13.53 9.5C13.61 9.3 13.69 9.11 13.79 8.97C13.83 8.91 13.89 8.84 13.95 8.78ZM12.86 13.46C12.83 13.52 12.78 13.59 12.71 13.64C12.63 13.7 12.54 13.73 12.48 13.74C12.41 13.75 12.32 13.76 12.23 13.77C12.06 13.78 11.83 13.79 11.58 13.78C11.24 13.78 10.84 13.77 10.42 13.75C10.23 13.75 10.03 13.74 9.83 13.74C9.21 13.72 8.62 13.71 8.19 13.74C8.02 13.75 7.88 13.77 7.78 13.79C7.79 13.79 7.79 13.8 7.8 13.8C7.88 13.9 8.02 14.03 8.19 14.18C8.46 14.41 8.8 14.68 9.17 14.97C9.26 15.05 9.35 15.12 9.45 15.2C9.91 15.56 10.38 15.95 10.74 16.29C10.92 16.47 11.08 16.64 11.19 16.8C11.3 16.96 11.4 17.14 11.4 17.34C11.4 17.59 11.32 17.97 11.21 18.38C11.13 18.67 11.04 19 10.95 19.33C10.91 19.46 10.87 19.59 10.83 19.72C10.71 20.18 10.59 20.6 10.53 20.93C10.51 21.05 10.49 21.15 10.49 21.23C10.57 21.19 10.68 21.13 10.81 21.06C11.15 20.87 11.57 20.59 12.01 20.29C12.08 20.25 12.14 20.2 12.21 20.16C12.58 19.9 12.96 19.65 13.28 19.45C13.47 19.33 13.65 19.23 13.8 19.15C13.87 19.12 13.95 19.08 14.02 19.06C14.08 19.04 14.16 19.02 14.25 19.02C14.33 19.02 14.41 19.04 14.47 19.06C14.54 19.08 14.62 19.12 14.69 19.15C14.84 19.23 15.02 19.33 15.21 19.45C15.53 19.65 15.91 19.9 16.29 20.16C16.35 20.2 16.41 20.25 16.48 20.29C16.92 20.59 17.34 20.87 17.68 21.06C17.81 21.13 17.92 21.19 18 21.23C18 21.15 17.98 21.05 17.96 20.93C17.9 20.6 17.79 20.18 17.66 19.72C17.62 19.59 17.58 19.46 17.54 19.33C17.45 19 17.36 18.67 17.28 18.38C17.17 17.97 17.09 17.59 17.09 17.34C17.09 17.14 17.19 16.96 17.3 16.8C17.41 16.64 17.57 16.47 17.75 16.29C18.11 15.95 18.58 15.56 19.04 15.2C19.14 15.12 19.23 15.05 19.33 14.97C19.69 14.68 20.03 14.41 20.3 14.18C20.47 14.03 20.61 13.9 20.69 13.8C20.7 13.8 20.7 13.79 20.71 13.79C20.61 13.77 20.47 13.75 20.3 13.74C19.87 13.71 19.28 13.72 18.66 13.74C18.46 13.74 18.26 13.75 18.07 13.75C17.65 13.77 17.25 13.78 16.91 13.78C16.66 13.79 16.43 13.78 16.26 13.77C16.17 13.76 16.08 13.75 16.01 13.74C15.95 13.73 15.86 13.7 15.78 13.64C15.71 13.59 15.66 13.52 15.63 13.46C15.59 13.4 15.56 13.33 15.53 13.25C15.47 13.1 15.4 12.9 15.33 12.69C15.24 12.39 15.15 12.04 15.04 11.68C15 11.5 14.95 11.33 14.9 11.15C14.74 10.61 14.59 10.09 14.43 9.71C14.36 9.53 14.3 9.4 14.25 9.31C14.19 9.4 14.13 9.53 14.06 9.71C13.9 10.09 13.75 10.61 13.59 11.15C13.54 11.33 13.49 11.5 13.45 11.68C13.34 12.04 13.25 12.39 13.16 12.69C13.09 12.9 13.02 13.1 12.96 13.25C12.93 13.33 12.9 13.4 12.86 13.46Z" fill="#FFFFFF" fill-opacity="1.000000" fill-rule="evenodd"/>
</svg>
