<svg width="33.750000" height="32.495422" viewBox="0 0 33.75 32.4954" fill="none" xmlns="http://www.w3.org/2000/svg" xmlns:xlink="http://www.w3.org/1999/xlink">
	<defs/>
	<path id="Vector 6 (Stroke)" d="M0 0.75C0 0.33 0.33 0 0.75 0L33 0C33.41 0 33.75 0.33 33.75 0.75L33.75 18C33.75 18.41 33.41 18.75 33 18.75L30.27 18.75C29.62 19.44 28.76 20 27.74 20L5.99 20C4.98 20 4.12 19.44 3.47 18.75L0.75 18.75C0.33 18.75 0 18.41 0 18L0 0.75ZM3.06 18.25C2.57 17.59 2.23 16.86 2.08 16.31C2.03 16.1 1.99 15.91 1.99 15.75L1.99 14.25C1.99 13.89 2.19 13.57 2.53 13.35C2.87 13.13 3.36 13 3.99 13L29.74 13C30.38 13 30.87 13.13 31.21 13.35C31.55 13.57 31.74 13.89 31.74 14.25L31.74 15.75C31.74 15.91 31.71 16.1 31.66 16.31C31.51 16.86 31.17 17.59 30.68 18.25L33 18.25C33.13 18.25 33.25 18.13 33.25 18L33.25 7.75L0.5 7.75L0.5 18C0.5 18.13 0.61 18.25 0.75 18.25L3.06 18.25ZM0.5 7.25L33.25 7.25L33.25 0.75C33.25 0.61 33.13 0.5 33 0.5L0.75 0.5C0.61 0.5 0.5 0.61 0.5 0.75L0.5 7.25ZM12.74 2.25C12.88 2.25 12.99 2.36 12.99 2.5L12.99 3.75L14.99 3.75L14.99 2.5C14.99 2.36 15.11 2.25 15.24 2.25C15.38 2.25 15.49 2.36 15.49 2.5L15.49 3.75L17.49 3.75L17.49 2.5C17.49 2.36 17.61 2.25 17.74 2.25C17.88 2.25 17.99 2.36 17.99 2.5L17.99 3.75L19.99 3.75L19.99 2.5C19.99 2.36 20.11 2.25 20.24 2.25C20.38 2.25 20.49 2.36 20.49 2.5L20.49 3.75L21.24 3.75C21.38 3.75 21.49 3.86 21.49 4C21.49 4.13 21.38 4.25 21.24 4.25L20.49 4.25L20.49 5.5C20.49 5.63 20.38 5.75 20.24 5.75C20.11 5.75 19.99 5.63 19.99 5.5L19.99 4.25L17.99 4.25L17.99 5.5C17.99 5.63 17.88 5.75 17.74 5.75C17.61 5.75 17.49 5.63 17.49 5.5L17.49 4.25L15.49 4.25L15.49 5.5C15.49 5.63 15.38 5.75 15.24 5.75C15.11 5.75 14.99 5.63 14.99 5.5L14.99 4.25L12.99 4.25L12.99 5.5C12.99 5.63 12.88 5.75 12.74 5.75C12.61 5.75 12.49 5.63 12.49 5.5L12.49 4.25L11.74 4.25C11.61 4.25 11.49 4.13 11.49 4C11.49 3.86 11.61 3.75 11.74 3.75L12.49 3.75L12.49 2.5C12.49 2.36 12.61 2.25 12.74 2.25ZM2.49 3.5C2.49 3.08 2.83 2.75 3.24 2.75L7.49 2.75C7.91 2.75 8.24 3.08 8.24 3.5L8.24 4.75C8.24 5.16 7.91 5.5 7.49 5.5L3.24 5.5C2.83 5.5 2.49 5.16 2.49 4.75L2.49 3.5ZM3.24 3.25C3.11 3.25 2.99 3.36 2.99 3.5L2.99 4.75C2.99 4.88 3.11 5 3.24 5L7.49 5C7.63 5 7.74 4.88 7.74 4.75L7.74 3.5C7.74 3.36 7.63 3.25 7.49 3.25L3.24 3.25ZM23.74 4C23.74 3.86 23.86 3.75 23.99 3.75L25.49 3.75C25.63 3.75 25.74 3.86 25.74 4C25.74 4.13 25.63 4.25 25.49 4.25L24.99 4.25L24.99 4.75C24.99 4.88 24.88 5 24.74 5C24.61 5 24.49 4.88 24.49 4.75L24.49 4.25L23.99 4.25C23.86 4.25 23.74 4.13 23.74 4ZM26.74 4C26.74 3.86 26.86 3.75 26.99 3.75L28.49 3.75C28.63 3.75 28.74 3.86 28.74 4C28.74 4.13 28.63 4.25 28.49 4.25L27.99 4.25L27.99 4.75C27.99 4.88 27.88 5 27.74 5C27.61 5 27.49 4.88 27.49 4.75L27.49 4.25L26.99 4.25C26.86 4.25 26.74 4.13 26.74 4ZM29.74 4C29.74 3.86 29.86 3.75 29.99 3.75L31.49 3.75C31.63 3.75 31.74 3.86 31.74 4C31.74 4.13 31.63 4.25 31.49 4.25L30.99 4.25L30.99 4.75C30.99 4.88 30.88 5 30.74 5C30.61 5 30.49 4.88 30.49 4.75L30.49 4.25L29.99 4.25C29.86 4.25 29.74 4.13 29.74 4ZM2.81 13.77C2.58 13.92 2.49 14.1 2.49 14.25L2.49 15.75C2.49 15.81 2.5 15.9 2.52 16L31.22 16C31.24 15.9 31.24 15.81 31.24 15.75L31.24 14.25C31.24 14.1 31.16 13.92 30.93 13.77C30.7 13.61 30.31 13.5 29.74 13.5L3.99 13.5C3.43 13.5 3.04 13.61 2.81 13.77ZM31.07 16.5L2.67 16.5C2.87 17.06 3.25 17.75 3.77 18.33C4.37 19 5.13 19.5 5.99 19.5L27.74 19.5C28.61 19.5 29.37 19 29.97 18.33C30.49 17.75 30.87 17.06 31.07 16.5ZM10.72 23.57C10.42 23.08 10.06 22.66 9.82 22.42C9.58 22.18 9.91 21.81 10.17 22.07C10.43 22.33 10.82 22.78 11.14 23.3C11.46 23.81 11.74 24.42 11.74 25C11.74 25.39 11.55 25.77 11.31 26.12C11.11 26.42 10.85 26.73 10.59 27.03C10.54 27.1 10.49 27.16 10.44 27.22C10.12 27.59 9.82 27.97 9.6 28.35C9.38 28.74 9.24 29.12 9.24 29.5C9.24 30.16 9.38 30.73 9.57 31.17C9.76 31.62 9.99 31.92 10.15 32.05C10.32 32.18 10.09 32.64 9.84 32.44C9.59 32.24 9.32 31.86 9.11 31.37C8.9 30.87 8.74 30.23 8.74 29.5C8.74 29 8.92 28.53 9.17 28.1C9.41 27.68 9.74 27.27 10.05 26.9C10.11 26.83 10.16 26.77 10.21 26.71C10.47 26.4 10.71 26.11 10.9 25.84C11.13 25.5 11.24 25.23 11.24 25C11.24 24.57 11.03 24.05 10.72 23.57ZM17.22 23.57C16.92 23.08 16.56 22.66 16.32 22.42C16.08 22.18 16.41 21.81 16.67 22.07C16.93 22.33 17.32 22.78 17.64 23.3C17.96 23.81 18.24 24.42 18.24 25C18.24 25.39 18.05 25.77 17.81 26.12C17.61 26.42 17.35 26.73 17.09 27.03C17.04 27.1 16.99 27.16 16.94 27.22C16.62 27.59 16.32 27.97 16.1 28.35C15.88 28.74 15.74 29.12 15.74 29.5C15.74 30.16 15.88 30.73 16.07 31.17C16.26 31.62 16.49 31.92 16.65 32.05C16.82 32.18 16.59 32.64 16.34 32.44C16.09 32.24 15.82 31.86 15.61 31.37C15.4 30.87 15.24 30.23 15.24 29.5C15.24 29 15.42 28.53 15.67 28.1C15.91 27.68 16.24 27.27 16.55 26.9C16.61 26.83 16.66 26.77 16.71 26.71C16.97 26.4 17.21 26.11 17.4 25.84C17.63 25.5 17.74 25.23 17.74 25C17.74 24.57 17.53 24.05 17.22 23.57ZM24.22 23.57C23.92 23.08 23.56 22.66 23.32 22.42C23.08 22.18 23.41 21.81 23.67 22.07C23.93 22.33 24.32 22.78 24.64 23.3C24.96 23.81 25.24 24.42 25.24 25C25.24 25.39 25.05 25.77 24.81 26.12C24.61 26.42 24.35 26.73 24.09 27.03C24.04 27.1 23.99 27.16 23.94 27.22C23.62 27.59 23.32 27.97 23.1 28.35C22.88 28.74 22.74 29.12 22.74 29.5C22.74 30.16 22.88 30.73 23.07 31.17C23.26 31.62 23.49 31.92 23.65 32.05C23.82 32.18 23.59 32.64 23.34 32.44C23.09 32.24 22.82 31.86 22.61 31.37C22.4 30.87 22.24 30.23 22.24 29.5C22.24 29 22.42 28.53 22.67 28.1C22.91 27.68 23.24 27.27 23.55 26.9C23.61 26.83 23.66 26.77 23.71 26.71C23.97 26.4 24.21 26.11 24.4 25.84C24.63 25.5 24.74 25.23 24.74 25C24.74 24.57 24.53 24.05 24.22 23.57Z" fill="#FFFFFF" fill-opacity="1.000000" fill-rule="evenodd"/>
</svg>
