<svg width="34.500000" height="34.000061" viewBox="0 0 34.5 34.0001" fill="none" xmlns="http://www.w3.org/2000/svg" xmlns:xlink="http://www.w3.org/1999/xlink">
	<defs/>
	<path id="Vector 23 (Stroke)" d="M0.75 0.5C0.61 0.5 0.5 0.61 0.5 0.75L0.5 7L20.25 7L20.25 0.5L0.75 0.5ZM20.75 0.5L20.75 7L34 7L34 0.75C34 0.61 33.88 0.5 33.75 0.5L20.75 0.5ZM34 7.5L0.5 7.5L0.5 33.25C0.5 33.38 0.61 33.5 0.75 33.5L33.75 33.5C33.88 33.5 34 33.38 34 33.25L34 7.5ZM0 0.75C0 0.33 0.33 0 0.75 0L33.75 0C34.16 0 34.5 0.33 34.5 0.75L34.5 33.25C34.5 33.66 34.16 34 33.75 34L0.75 34C0.33 34 0 33.66 0 33.25L0 0.75ZM5.75 2.5C5.61 2.5 5.5 2.61 5.5 2.75L5.5 4.25C5.5 4.38 5.61 4.5 5.75 4.5L15.25 4.5C15.38 4.5 15.5 4.38 15.5 4.25L15.5 2.75C15.5 2.61 15.38 2.5 15.25 2.5L5.75 2.5ZM5 2.75C5 2.33 5.33 2 5.75 2L15.25 2C15.66 2 16 2.33 16 2.75L16 4.25C16 4.66 15.66 5 15.25 5L5.75 5C5.33 5 5 4.66 5 4.25L5 2.75ZM3 2.75C3.13 2.75 3.25 2.86 3.25 3L3.25 4C3.25 4.13 3.13 4.25 3 4.25C2.86 4.25 2.75 4.13 2.75 4L2.75 3C2.75 2.86 2.86 2.75 3 2.75ZM18 2.75C18.13 2.75 18.25 2.86 18.25 3L18.25 4C18.25 4.13 18.13 4.25 18 4.25C17.86 4.25 17.75 4.13 17.75 4L17.75 3C17.75 2.86 17.86 2.75 18 2.75ZM22.5 3.5C22.5 3.36 22.61 3.25 22.75 3.25L31 3.25C31.13 3.25 31.25 3.36 31.25 3.5C31.25 3.63 31.13 3.75 31 3.75L22.75 3.75C22.61 3.75 22.5 3.63 22.5 3.5ZM2.5 9.5L32 9.5L32 31.5L2.5 31.5L2.5 9.5ZM3 10L3 17.25L6.5 17.25L6.5 14.5C6.5 14.49 6.5 14.48 6.5 14.47C6.49 14.24 6.49 13.88 6.8 13.62C7.1 13.37 7.62 13.25 8.5 13.25C9.37 13.25 9.89 13.37 10.19 13.62C10.5 13.88 10.5 14.24 10.5 14.47C10.5 14.48 10.5 14.49 10.5 14.5L10.5 17.25L12 17.25L12 14.5C12 14.49 12 14.48 12 14.47C11.99 14.24 11.99 13.88 12.3 13.62C12.6 13.37 13.12 13.25 14 13.25C14.87 13.25 15.39 13.37 15.69 13.62C16 13.88 16 14.24 16 14.47C16 14.48 16 14.49 16 14.5L16 17.25L18.5 17.25L18.5 14.5C18.5 14.49 18.5 14.48 18.5 14.47C18.49 14.24 18.49 13.88 18.8 13.62C19.07 13.39 19.52 13.27 20.25 13.25L20.25 12.25L19.25 12.25L19.25 11.75L21.75 11.75L21.75 12.25L20.75 12.25L20.75 13.25C21.47 13.27 21.92 13.39 22.19 13.62C22.5 13.88 22.5 14.24 22.5 14.47C22.5 14.48 22.5 14.49 22.5 14.5L22.5 17.25L24 17.25L24 14.5C24 14.49 24 14.48 24 14.47C23.99 14.24 23.99 13.88 24.3 13.62C24.57 13.39 25.02 13.27 25.75 13.25L25.75 12.25L24.75 12.25L24.75 11.75L27.25 11.75L27.25 12.25L26.25 12.25L26.25 13.25C26.97 13.27 27.42 13.39 27.69 13.62C28 13.88 28 14.24 28 14.47C28 14.48 28 14.49 28 14.5L28 17.25L31.5 17.25L31.5 10L3 10ZM31.5 17.75L3 17.75L3 31L31.5 31L31.5 17.75ZM27.5 17.25L27.5 14.5C27.5 14.23 27.48 14.1 27.36 14C27.22 13.87 26.87 13.75 26 13.75C25.12 13.75 24.77 13.87 24.63 14C24.51 14.1 24.5 14.23 24.5 14.5L24.5 17.25L27.5 17.25ZM22 17.25L22 14.5C22 14.23 21.98 14.1 21.86 14C21.72 13.87 21.37 13.75 20.5 13.75C19.62 13.75 19.27 13.87 19.13 14C19.01 14.1 19 14.23 19 14.5L19 17.25L22 17.25ZM15.5 17.25L15.5 14.5C15.5 14.23 15.48 14.1 15.36 14C15.22 13.87 14.87 13.75 14 13.75C13.12 13.75 12.77 13.87 12.63 14C12.51 14.1 12.5 14.23 12.5 14.5L12.5 17.25L15.5 17.25ZM10 17.25L10 14.5C10 14.23 9.98 14.1 9.86 14C9.72 13.87 9.37 13.75 8.5 13.75C7.62 13.75 7.27 13.87 7.13 14C7.01 14.1 7 14.23 7 14.5L7 17.25L10 17.25ZM10.25 20C8.77 20 7.47 20.74 6.71 21.88C6.26 22.56 6 23.37 6 24.25C6 26.59 7.9 28.5 10.25 28.5C12.59 28.5 14.5 26.59 14.5 24.25C14.5 23.37 14.23 22.56 13.78 21.88C13.71 21.78 13.63 21.67 13.55 21.57C12.77 20.61 11.58 20 10.25 20ZM6.29 21.61C7.15 20.33 8.6 19.5 10.25 19.5C11.63 19.5 12.88 20.09 13.75 21.03C14.61 20.09 15.86 19.5 17.25 19.5C18.63 19.5 19.88 20.09 20.75 21.03C21.61 20.09 22.86 19.5 24.25 19.5C26.87 19.5 29 21.62 29 24.25C29 26.87 26.87 29 24.25 29C22.86 29 21.61 28.4 20.75 27.46C19.88 28.4 18.63 29 17.25 29C15.86 29 14.61 28.4 13.75 27.46C12.88 28.4 11.63 29 10.25 29C7.62 29 5.5 26.87 5.5 24.25C5.5 23.27 5.79 22.36 6.29 21.61ZM14.07 27.07C14.85 27.94 15.98 28.5 17.25 28.5C18.58 28.5 19.77 27.88 20.55 26.92C21.14 26.19 21.5 25.26 21.5 24.25C21.5 23.23 21.14 22.3 20.55 21.57C19.77 20.61 18.58 20 17.25 20C15.98 20 14.85 20.55 14.07 21.42C14.11 21.48 14.15 21.54 14.2 21.61C14.7 22.36 15 23.27 15 24.25C15 25.3 14.65 26.28 14.07 27.07ZM21.07 27.07C21.85 27.94 22.98 28.5 24.25 28.5C26.59 28.5 28.5 26.59 28.5 24.25C28.5 21.9 26.59 20 24.25 20C22.98 20 21.85 20.55 21.07 21.42C21.65 22.21 22 23.19 22 24.25C22 25.3 21.65 26.28 21.07 27.07ZM11.29 23.2C10.71 22.61 9.76 22.61 9.17 23.2C8.59 23.78 8.59 24.73 9.17 25.32C9.76 25.9 10.71 25.9 11.29 25.32C11.88 24.73 11.88 23.78 11.29 23.2ZM8.82 22.84C9.6 22.06 10.87 22.06 11.65 22.84C12.43 23.62 12.43 24.89 11.65 25.67C10.87 26.45 9.6 26.45 8.82 25.67C8.04 24.89 8.04 23.62 8.82 22.84ZM18.29 23.2C17.71 22.61 16.76 22.61 16.17 23.2C15.59 23.78 15.59 24.73 16.17 25.32C16.76 25.9 17.71 25.9 18.29 25.32C18.88 24.73 18.88 23.78 18.29 23.2ZM15.82 22.84C16.6 22.06 17.87 22.06 18.65 22.84C19.43 23.62 19.43 24.89 18.65 25.67C17.87 26.45 16.6 26.45 15.82 25.67C15.04 24.89 15.04 23.62 15.82 22.84ZM25.29 23.2C24.71 22.61 23.76 22.61 23.17 23.2C22.59 23.78 22.59 24.73 23.17 25.32C23.76 25.9 24.71 25.9 25.29 25.32C25.88 24.73 25.88 23.78 25.29 23.2ZM22.82 22.84C23.6 22.06 24.87 22.06 25.65 22.84C26.43 23.62 26.43 24.89 25.65 25.67C24.87 26.45 23.6 26.45 22.82 25.67C22.04 24.89 22.04 23.62 22.82 22.84Z" fill="#FFFFFF" fill-opacity="1.000000" fill-rule="evenodd"/>
</svg>
