<svg width="23.500000" height="34.000000" viewBox="0 0 23.5 34" fill="none" xmlns="http://www.w3.org/2000/svg" xmlns:xlink="http://www.w3.org/1999/xlink">
	<defs/>
	<path id="Vector 21 (Stroke)" d="M0 0.75C0 0.33 0.33 0 0.75 0L22.75 0C23.16 0 23.5 0.33 23.5 0.75L23.5 33.25C23.5 33.66 23.16 34 22.75 34L0.75 34C0.33 34 0 33.66 0 33.25L0 0.75ZM0.75 0.5C0.61 0.5 0.5 0.61 0.5 0.75L0.5 5L23 5L23 0.75C23 0.61 22.88 0.5 22.75 0.5L0.75 0.5ZM23 5.5L0.5 5.5L0.5 30L23 30L23 5.5ZM23 30.5L0.5 30.5L0.5 33.25C0.5 33.38 0.61 33.5 0.75 33.5L22.75 33.5C22.88 33.5 23 33.38 23 33.25L23 30.5ZM5 2.75C5 2.61 5.11 2.5 5.25 2.5L6.25 2.5L6.25 3L5.25 3C5.11 3 5 2.88 5 2.75ZM8 2.5L15.5 2.5L15.5 3L8 3L8 2.5ZM17.25 2.5L18.25 2.5C18.38 2.5 18.5 2.61 18.5 2.75C18.5 2.88 18.38 3 18.25 3L17.25 3L17.25 2.5ZM19.75 8L4.25 8L4.25 7.5L19.75 7.5L19.75 8Z" fill="#FFFFFF" fill-opacity="1.000000" fill-rule="evenodd"/>
</svg>
