<svg width="26.666504" height="26.600098" viewBox="0 0 26.6665 26.6001" fill="none" xmlns="http://www.w3.org/2000/svg" xmlns:xlink="http://www.w3.org/1999/xlink">
	<desc>
			Created with Pixso.
	</desc>
	<defs/>
	<path id="Vector" d="M26.66 13.33C26.66 5.97 20.69 0 13.33 0C5.97 0 0 5.97 0 13.33C0 19.78 4.58 25.16 10.66 26.39L10.66 17.33L8 17.33L8 13.33L10.66 13.33L10.66 10C10.66 7.42 12.75 5.33 15.33 5.33L18.66 5.33L18.66 9.33L16 9.33C15.26 9.33 14.66 9.93 14.66 10.66L14.66 13.33L18.66 13.33L18.66 17.33L14.66 17.33L14.66 26.6C21.39 25.93 26.66 20.25 26.66 13.33Z" fill="#FFFFFF" fill-opacity="1.000000" fill-rule="nonzero"/>
</svg>
