<svg width="60" height="60" viewBox="0 0 60 60" fill="none" xmlns="http://www.w3.org/2000/svg">
<path fill-rule="evenodd" clip-rule="evenodd" d="M28.9074 2.79135C28.4446 2.53618 27.8836 2.53618 27.4209 2.79135L3.00374 16.2562C2.75443 16.3937 2.59998 16.656 2.59998 16.9403V43.3688C2.59998 43.9463 2.92204 44.4759 3.43522 44.7406L27.8067 57.3132C28.0378 57.4324 28.313 57.4286 28.5406 57.303L37.6912 52.257C38.0687 52.0488 38.2057 51.574 37.9984 51.1966C37.7909 50.8187 37.3162 50.6803 36.9381 50.8888L28.9444 55.2969V31.0688L52.1677 18.2623V30.6074C52.1677 31.038 52.5163 31.3884 52.948 31.3884C53.3797 31.3884 53.7283 31.038 53.7283 30.6074V16.9403C53.7283 16.6559 53.5738 16.3937 53.3245 16.2562L28.9074 2.79135ZM18.3072 9.60059L41.474 22.3759L51.331 16.9403L28.1641 4.16495L18.3072 9.60059ZM4.99731 16.9403L28.1641 29.7157L39.8569 23.2677L16.6901 10.4923L4.99731 16.9403ZM4.16054 18.2623V43.3575L27.3839 55.3377V31.0688L4.16054 18.2623Z" fill="#343434"/>
<path d="M57.1629 34.0145C56.8532 33.714 56.3588 33.7219 56.0589 34.0321L44.7036 45.779L38.8379 39.3395C38.5473 39.0206 38.0534 38.9979 37.735 39.2891C37.417 39.5799 37.3946 40.0735 37.6847 40.392L43.5648 46.8473C44.1637 47.5047 45.1922 47.52 45.8102 46.8806L57.1804 35.1184C57.4799 34.8086 57.472 34.3146 57.1629 34.0145Z" fill="#343434"/>
</svg>
