<svg width="26.000000" height="26.000000" viewBox="0 0 26 26" fill="none" xmlns="http://www.w3.org/2000/svg" xmlns:xlink="http://www.w3.org/1999/xlink">
	<desc>
			Created with Pixso.
	</desc>
	<defs/>
	<path id="Vector" d="M19 0L7 0C5.14 0 3.36 0.74 2.05 2.05C0.74 3.36 0 5.14 0 7L0 19C0 20.85 0.74 22.63 2.05 23.94C3.36 25.25 5.14 25.99 7 26L19 26C20.85 25.99 22.63 25.25 23.94 23.94C25.25 22.63 25.99 20.85 26 19L26 7C25.99 5.14 25.25 3.36 23.94 2.05C22.63 0.74 20.85 0 19 0ZM13 19C11.81 19 10.65 18.64 9.66 17.98C8.67 17.32 7.91 16.39 7.45 15.29C7 14.19 6.88 12.99 7.11 11.82C7.34 10.66 7.91 9.59 8.75 8.75C9.59 7.91 10.66 7.34 11.82 7.11C12.99 6.88 14.19 7 15.29 7.45C16.39 7.91 17.32 8.67 17.98 9.66C18.64 10.65 19 11.81 19 13C18.99 14.59 18.36 16.11 17.24 17.24C16.11 18.36 14.59 18.99 13 19ZM20.5 7C20.2 7 19.91 6.91 19.66 6.74C19.41 6.58 19.22 6.34 19.11 6.07C19 5.79 18.97 5.49 19.02 5.2C19.08 4.91 19.22 4.64 19.43 4.43C19.64 4.22 19.91 4.08 20.2 4.02C20.49 3.97 20.79 4 21.07 4.11C21.34 4.22 21.58 4.41 21.74 4.66C21.91 4.91 22 5.2 22 5.5C22 5.89 21.84 6.27 21.56 6.56C21.27 6.84 20.89 7 20.5 7ZM17 13C17 13.79 16.76 14.56 16.32 15.22C15.88 15.87 15.26 16.39 14.53 16.69C13.79 16.99 12.99 17.07 12.21 16.92C11.44 16.76 10.73 16.38 10.17 15.82C9.61 15.26 9.23 14.55 9.07 13.78C8.92 13 9 12.2 9.3 11.46C9.6 10.73 10.12 10.11 10.77 9.67C11.43 9.23 12.2 9 13 9C14.06 9 15.07 9.42 15.82 10.17C16.57 10.92 17 11.93 17 13Z" fill="#FFFFFF" fill-opacity="1.000000" fill-rule="nonzero"/>
</svg>
