<svg width="60" height="61" viewBox="0 0 60 61" fill="none" xmlns="http://www.w3.org/2000/svg">
<path fill-rule="evenodd" clip-rule="evenodd" d="M26.9736 1.65704C27.7596 0.935188 28.938 0.599976 30.5001 0.599976C32.0622 0.599976 33.2406 0.935187 34.0266 1.65704C34.6162 2.19853 34.904 2.88262 35.0146 3.59271C36.5933 3.70654 38.061 4.18274 39.3918 4.94185C42.0172 6.43936 44.0902 9.02346 45.4982 12.0806C46.7852 14.8749 47.5362 18.1045 47.6421 21.3634H48.9566C49.3974 21.3634 49.7524 21.7217 49.7524 22.1607C49.7524 22.5998 49.3972 22.958 48.9564 22.958H45.9708C45.8721 29.0598 44.6368 33.9868 42.5365 37.6316V43.4359C43.9785 43.5677 45.5826 44.0339 47.1809 44.6654C49.0907 45.4199 51.0513 46.4342 52.813 47.4826C54.5745 48.5309 56.1552 49.624 57.3042 50.5447C57.8765 51.0033 58.3579 51.4319 58.7039 51.8007C58.8757 51.9838 59.0308 52.1697 59.1481 52.3509C59.2466 52.5031 59.4001 52.7723 59.4001 53.094V57.8082C59.4001 58.686 58.6907 59.4 57.8126 59.4H3.1876C2.30949 59.4 1.6001 58.686 1.6001 57.8082V53.094C1.6001 52.7723 1.75363 52.5031 1.85206 52.351C1.96935 52.1697 2.12451 51.9838 2.29632 51.8007C2.64229 51.4319 3.12372 51.0033 3.69601 50.5447C4.84505 49.624 6.42572 48.5309 8.18721 47.4826C9.94888 46.4342 11.9095 45.4199 13.8193 44.6654C15.4176 44.0339 17.0217 43.5677 18.4637 43.4359V37.6316C16.3634 33.9868 15.1281 29.0598 15.0294 22.958H12.0436C11.6027 22.958 11.2478 22.5997 11.2478 22.1607C11.2478 21.7218 11.6027 21.3634 12.0436 21.3634H13.3581C13.464 18.1045 14.215 14.8749 15.5019 12.0806C16.9099 9.02346 18.983 6.43936 21.6083 4.94185C22.9392 4.18274 24.4069 3.70654 25.9856 3.59271C26.0962 2.88262 26.384 2.19853 26.9736 1.65704ZM34.2787 4.27398C34.2791 4.29985 34.2794 4.32582 34.2794 4.3519L34.2848 4.35213L34.2787 4.27398ZM26.7154 4.35213L26.7208 4.3519C26.7208 4.32584 26.7211 4.29988 26.7215 4.27403L26.7154 4.35213ZM30.5001 2.1945C29.1262 2.1945 28.4168 2.49477 28.0492 2.83241C27.6978 3.15512 27.5207 3.6404 27.5207 4.36345V8.60089C27.5207 9.03985 27.1658 9.39815 26.7249 9.39815C26.284 9.39815 25.9291 9.03985 25.9291 8.60089V5.19716C24.8672 5.29515 23.8635 5.58834 22.9246 6.04764L24.2843 11.5303C24.5484 12.5952 23.7166 13.6328 22.6073 13.5707L16.7283 13.2413C15.6733 15.7055 15.0495 18.5183 14.9507 21.3634H46.0495C45.9507 18.5183 45.3269 15.7055 44.2719 13.2413L38.3275 13.5743C37.2584 13.6342 36.441 12.6389 36.6984 11.6009L38.0756 6.04763C37.1367 5.58834 36.133 5.29515 35.0711 5.19716V8.60089C35.0711 9.03985 34.7162 9.39815 34.2753 9.39815C33.8344 9.39815 33.4794 9.03985 33.4794 8.60089V4.36345C33.4794 3.6404 33.3024 3.15512 32.951 2.83241C32.5834 2.49477 31.874 2.1945 30.5001 2.1945ZM39.5028 6.90621L38.2439 11.982L43.5233 11.6862C42.4531 9.70019 41.0884 8.0489 39.5028 6.90621ZM17.4769 11.6862C18.5471 9.70019 19.9118 8.0489 21.4974 6.90621L22.7396 11.9147C22.7497 11.9554 22.7178 11.9798 22.6961 11.9786L17.4769 11.6862ZM16.6213 22.958H44.3789C44.2785 28.9625 43.0419 33.6538 41.0561 37.0089C38.5397 41.2607 34.8093 43.3982 30.5001 43.3982C26.1909 43.3982 22.4605 41.2607 19.9441 37.0089C17.9583 33.6538 16.7217 28.9625 16.6213 22.958ZM20.0554 39.9514V43.6974C20.0933 43.7238 20.1305 43.7509 20.1669 43.7784C20.3951 43.9509 20.6537 44.1854 20.9274 44.4547C21.4783 44.9969 22.1553 45.7452 22.8801 46.5901C23.9821 47.8746 25.2194 49.4113 26.3363 50.852C26.4176 50.6536 26.5077 50.4581 26.6034 50.267C26.9856 49.5035 27.4863 48.7526 27.9688 48.0877C28.2986 47.6332 28.6317 47.2031 28.9176 46.8341L28.919 46.8324C29.0499 46.6634 29.1703 46.508 29.277 46.3675C29.4529 46.1361 29.5826 45.9574 29.6663 45.8254C29.682 45.8007 29.6945 45.7801 29.7043 45.7632L29.7043 44.9708C25.9219 44.7609 22.5835 43.0477 20.0554 39.9514ZM31.2959 44.9708L31.2959 45.7633C31.3057 45.7801 31.3182 45.8007 31.3339 45.8254C31.4176 45.9574 31.5473 46.1361 31.7232 46.3675C31.8297 46.5077 31.9498 46.6627 32.0804 46.8313M31.2959 44.9708C35.0783 44.7609 38.4167 43.0477 40.9448 39.9514V43.6974C40.9069 43.7238 40.8696 43.7509 40.8333 43.7784C40.6051 43.9509 40.3465 44.1854 40.0728 44.4547C39.5219 44.9969 38.8449 45.7452 38.1201 46.5901C37.0181 47.8746 35.7808 49.4113 34.6639 50.852C34.5826 50.6536 34.4925 50.4581 34.3968 50.267C34.0146 49.5035 33.5139 48.7526 33.0314 48.0877C32.7016 47.6332 32.3685 47.2032 32.0827 46.8342L32.0813 46.8324L32.0804 46.8313M19.1284 44.994C17.8076 45.0211 16.1684 45.4514 14.4032 46.1487C12.5926 46.8641 10.7097 47.8361 9.00012 48.8535C7.2904 49.8709 5.77221 50.923 4.69018 51.7899C4.14693 52.2252 3.72977 52.601 3.45606 52.8927C3.32202 53.0356 3.23806 53.1418 3.19176 53.212V57.8055H25.091C25.098 55.8817 25.163 54.3114 25.8038 52.7732C24.5309 51.1001 22.9976 49.1734 21.673 47.6294C20.9586 46.7966 20.3155 46.0877 19.8119 45.5922C19.5583 45.3426 19.3562 45.1631 19.2083 45.0513C19.1759 45.0269 19.1494 45.0081 19.1284 44.994ZM46.597 46.1487C44.8318 45.4514 43.1926 45.0211 41.8718 44.994C41.8508 45.0081 41.8243 45.0269 41.7919 45.0513C41.644 45.1631 41.4419 45.3426 41.1882 45.5922C40.6847 46.0877 40.0416 46.7966 39.3272 47.6294C38.0026 49.1734 36.4693 51.1001 35.1964 52.7732C35.8372 54.3114 35.9022 55.8817 35.9092 57.8055H57.8084V53.212C57.7621 53.1418 57.6782 53.0356 57.5441 52.8927C57.2704 52.601 56.8533 52.2252 56.31 51.7899C55.228 50.923 53.7098 49.8709 52.0001 48.8535C50.2905 47.8361 48.4076 46.8641 46.597 46.1487ZM30.5001 47.3903C30.3951 47.5278 30.2828 47.6727 30.1661 47.8233C29.8827 48.189 29.5709 48.5916 29.2562 49.0252C28.7949 49.661 28.3518 50.3313 28.0262 50.9818C27.8674 51.299 27.7438 51.5973 27.6586 51.873H33.3416C33.2564 51.5973 33.1328 51.299 32.974 50.9818C32.6484 50.3313 32.2053 49.661 31.744 49.0252C31.4293 48.5916 31.1179 48.1896 30.8345 47.8238C30.7178 47.6733 30.6051 47.5278 30.5001 47.3903ZM27.2396 53.4676C26.7597 54.6638 26.6919 55.927 26.6831 57.8055H34.3171C34.3083 55.927 34.2405 54.6638 33.7606 53.4676H27.2396Z" fill="#343434"/>
</svg>
