<svg width="34.500000" height="24.000000" viewBox="0 0 34.5 24" fill="none" xmlns="http://www.w3.org/2000/svg" xmlns:xlink="http://www.w3.org/1999/xlink">
	<defs/>
	<path id="Vector 4 (Stroke)" d="M0 0.75C0 0.33 0.33 0 0.75 0L33.75 0C34.16 0 34.5 0.33 34.5 0.75L34.5 23.25C34.5 23.66 34.16 24 33.75 24L0.75 24C0.33 24 0 23.66 0 23.25L0 0.75ZM0.75 0.5C0.61 0.5 0.5 0.61 0.5 0.75L0.5 23.25C0.5 23.38 0.61 23.5 0.75 23.5L24.42 23.5L24.42 0.5L0.75 0.5ZM24.92 0.5L24.92 23.5L33.75 23.5C33.88 23.5 34 23.38 34 23.25L34 0.75C34 0.61 33.88 0.5 33.75 0.5L24.92 0.5ZM3.35 4.54C3.35 4.13 3.68 3.79 4.1 3.79L20.82 3.79C21.23 3.79 21.57 4.13 21.57 4.54L21.57 19.68C21.57 20.1 21.23 20.43 20.82 20.43L4.1 20.43C3.68 20.43 3.35 20.1 3.35 19.68L3.35 4.54ZM4.1 4.29C3.96 4.29 3.85 4.4 3.85 4.54L3.85 19.68C3.85 19.82 3.96 19.93 4.1 19.93L20.82 19.93C20.95 19.93 21.07 19.82 21.07 19.68L21.07 4.54C21.07 4.4 20.95 4.29 20.82 4.29L4.1 4.29ZM26.33 4.99C26.33 4.85 26.45 4.74 26.58 4.74L27.54 4.74C27.68 4.74 27.79 4.85 27.79 4.99C27.79 5.13 27.68 5.24 27.54 5.24L26.58 5.24C26.45 5.24 26.33 5.13 26.33 4.99ZM28.49 4.99C28.49 4.85 28.6 4.74 28.74 4.74L32.09 4.74C32.23 4.74 32.34 4.85 32.34 4.99C32.34 5.13 32.23 5.24 32.09 5.24L28.74 5.24C28.6 5.24 28.49 5.13 28.49 4.99ZM26.33 7.13C26.33 6.99 26.45 6.88 26.58 6.88L27.54 6.88C27.68 6.88 27.79 6.99 27.79 7.13C27.79 7.27 27.68 7.38 27.54 7.38L26.58 7.38C26.45 7.38 26.33 7.27 26.33 7.13ZM28.49 7.13C28.49 6.99 28.6 6.88 28.74 6.88L32.09 6.88C32.23 6.88 32.34 6.99 32.34 7.13C32.34 7.27 32.23 7.38 32.09 7.38L28.74 7.38C28.6 7.38 28.49 7.27 28.49 7.13ZM26.33 8.55C26.33 8.42 26.45 8.3 26.58 8.3L27.54 8.3C27.68 8.3 27.79 8.42 27.79 8.55C27.79 8.69 27.68 8.8 27.54 8.8L26.58 8.8C26.45 8.8 26.33 8.69 26.33 8.55ZM28.49 8.55C28.49 8.42 28.6 8.3 28.74 8.3L32.09 8.3C32.23 8.3 32.34 8.42 32.34 8.55C32.34 8.69 32.23 8.8 32.09 8.8L28.74 8.8C28.6 8.8 28.49 8.69 28.49 8.55ZM27.53 12.83C27.53 12.16 28.07 11.63 28.74 11.63C29.32 11.63 29.8 12.03 29.92 12.58L31.61 12.58C31.75 12.58 31.86 12.69 31.86 12.83C31.86 12.96 31.75 13.08 31.61 13.08L29.92 13.08C29.8 13.62 29.32 14.03 28.74 14.03C28.07 14.03 27.53 13.49 27.53 12.83ZM28.74 12.13C28.35 12.13 28.03 12.44 28.03 12.83C28.03 13.21 28.35 13.53 28.74 13.53C29.13 13.53 29.45 13.21 29.45 12.83C29.45 12.44 29.13 12.13 28.74 12.13ZM26.33 16.89C26.33 16.47 26.67 16.14 27.08 16.14L31.59 16.14C32 16.14 32.34 16.47 32.34 16.89L32.34 18.73C32.34 19.15 32 19.48 31.59 19.48L27.08 19.48C26.67 19.48 26.33 19.15 26.33 18.73L26.33 16.89ZM27.08 16.64C26.95 16.64 26.83 16.75 26.83 16.89L26.83 18.73C26.83 18.87 26.95 18.98 27.08 18.98L31.59 18.98C31.73 18.98 31.84 18.87 31.84 18.73L31.84 16.89C31.84 16.75 31.73 16.64 31.59 16.64L27.08 16.64Z" fill="#FFFFFF" fill-opacity="1.000000" fill-rule="evenodd"/>
</svg>
