<svg width="60" height="60" viewBox="0 0 60 60" fill="none" xmlns="http://www.w3.org/2000/svg">
<path fill-rule="evenodd" clip-rule="evenodd" d="M31.3704 4.36629C31.3704 3.94313 31.7135 3.6001 32.1366 3.6001C38.5686 3.6001 44.6309 7.32417 49.0501 12.0342C53.4557 16.7298 56.4002 22.5906 56.4002 27.0929C56.4002 27.516 56.0571 27.8591 55.634 27.8591C55.2108 27.8591 54.8678 27.516 54.8678 27.0929C54.8678 23.1387 52.2048 17.6362 47.9325 13.0827C43.6737 8.54355 37.9874 5.13248 32.1366 5.13248C31.7135 5.13248 31.3704 4.78945 31.3704 4.36629ZM3.60807 5.64186C3.59181 4.79833 4.27636 4.12862 5.09943 4.12862H16.6005C17.2989 4.12862 17.9048 4.61109 18.0611 5.2918L20.4981 15.9041C20.6265 16.4633 20.4244 17.0467 19.9776 17.4066L12.9396 23.076C19.459 34.4949 25.1492 39.6639 35.8529 46.6467L43.0581 39.518C43.4251 39.1549 43.9532 39.0063 44.4558 39.1247L54.7113 41.5413C55.388 41.7008 55.8661 42.3047 55.8661 43V54.9008C55.8661 55.7245 55.1961 56.4076 54.3542 56.3929C46.8495 56.2625 39.65 54.1711 33.1573 50.7112C22.5664 45.0673 13.8295 35.7688 8.66912 25.318C5.55617 19.0136 3.73588 12.2718 3.60807 5.64186ZM5.14114 5.66101C5.27195 12.0182 7.02245 18.522 10.0431 24.6395C15.0674 34.8148 23.5814 43.8718 33.8779 49.3588C40.1693 52.7114 47.1161 54.7263 54.3337 54.8599V43.0267L44.1225 40.6205L36.9107 47.7558C36.4068 48.2543 35.624 48.3269 35.0369 47.9439C24.1589 40.8494 18.2717 35.513 11.5948 23.8111C11.2326 23.1763 11.3802 22.3644 11.9545 21.9018L18.9999 16.2265L16.5736 5.66101H5.14114ZM19.0046 16.2471C19.0046 16.2471 19.0046 16.247 19.0045 16.247L19.0046 16.2471ZM19.0162 16.2133C19.0163 16.2133 19.0163 16.2132 19.0163 16.2132L19.0375 16.2395L19.0163 16.2132L19.0162 16.2133ZM31.3704 17.0509C31.3704 16.6277 31.7135 16.2847 32.1366 16.2847C33.3985 16.2847 34.7063 16.7867 35.9198 17.5177C37.1429 18.2546 38.3305 19.2603 39.3683 20.3558C40.4064 21.4517 41.3132 22.6572 41.9653 23.8083C42.6044 24.9367 43.0494 26.101 43.0494 27.0929C43.0494 27.516 42.7064 27.8591 42.2832 27.8591C41.86 27.8591 41.517 27.516 41.517 27.0929C41.517 26.4992 41.2278 25.6155 40.6319 24.5636C40.049 23.5346 39.2202 22.4278 38.2558 21.4096C37.2909 20.391 36.2089 19.4808 35.129 18.8303C34.0395 18.1739 33.0109 17.8171 32.1366 17.8171C31.7135 17.8171 31.3704 17.474 31.3704 17.0509Z" fill="white"/>
</svg>
