<svg width="32.000000" height="32.000000" viewBox="0 0 32 32" fill="none" xmlns="http://www.w3.org/2000/svg" xmlns:xlink="http://www.w3.org/1999/xlink">
	<desc>
			Created with Pixso.
	</desc>
	<defs/>
	<circle id="Ellipse 20" r="15.500000" transform="matrix(-1.19249e-08 1 1 1.19249e-08 16 16)" stroke="#0089E9" stroke-opacity="1.000000" stroke-width="1.000000"/>
	<path id="Vector 24" d="M20.79 16.5L18.81 18.47C18.62 18.67 18.62 18.98 18.81 19.18C19.01 19.37 19.32 19.37 19.52 19.18L22.35 16.35C22.55 16.15 22.55 15.84 22.35 15.64L19.52 12.81C19.32 12.62 19.01 12.62 18.81 12.81C18.62 13.01 18.62 13.32 18.81 13.52L20.79 15.5L10 15.5C9.71 15.5 9.5 15.72 9.5 16C9.5 16.27 9.71 16.5 10 16.5L20.79 16.5Z" fill="#0089E9" fill-opacity="1.000000" fill-rule="evenodd"/>
</svg>
