<svg width="32.000000" height="32.000000" viewBox="0 0 32 32" fill="none" xmlns="http://www.w3.org/2000/svg" xmlns:xlink="http://www.w3.org/1999/xlink">
	<desc>
			Created with Pixso.
	</desc>
	<defs/>
	<circle id="Ellipse 20" r="15.500000" transform="matrix(1.19249e-08 1 -1 1.19249e-08 16 16)" stroke="#0089E9" stroke-opacity="1.000000" stroke-width="1.000000"/>
	<path id="Vector 24" d="M11.2 16.5L13.18 18.47C13.37 18.67 13.37 18.98 13.18 19.18C12.98 19.37 12.67 19.37 12.47 19.18L9.64 16.35C9.44 16.15 9.44 15.84 9.64 15.64L12.47 12.81C12.67 12.62 12.98 12.62 13.18 12.81C13.37 13.01 13.37 13.32 13.18 13.52L11.2 15.5L22 15.5C22.28 15.5 22.5 15.72 22.5 16C22.5 16.27 22.28 16.5 22 16.5L11.2 16.5Z" fill="#0089E9" fill-opacity="1.000000" fill-rule="evenodd"/>
</svg>
