<svg width="60" height="60" viewBox="0 0 60 60" fill="none" xmlns="http://www.w3.org/2000/svg">
<path fill-rule="evenodd" clip-rule="evenodd" d="M2.59998 30C2.59998 14.8674 14.8674 2.59998 30 2.59998C45.1326 2.59998 57.4 14.8674 57.4 30C57.4 45.1326 45.1326 57.4 30 57.4C14.8674 57.4 2.59998 45.1326 2.59998 30ZM30 4.16054C15.7292 4.16054 4.16054 15.7292 4.16054 30C4.16054 44.2707 15.7292 55.8394 30 55.8394C44.2707 55.8394 55.8394 44.2707 55.8394 30C55.8394 15.7292 44.2707 4.16054 30 4.16054ZM28.7443 19.0669C28.7443 18.6359 29.0937 18.2866 29.5246 18.2866C29.9556 18.2866 30.3049 18.6359 30.3049 19.0669V30.4943L45.1184 38.8269C45.494 39.0382 45.6272 39.514 45.416 39.8896C45.2047 40.2652 44.7289 40.3984 44.3533 40.1871L29.5298 31.8488C29.0446 31.5759 28.7443 31.0625 28.7443 30.5059V19.0669Z" fill="#343434"/>
</svg>
