<svg width="26.666504" height="26.666504" viewBox="0 0 26.6665 26.6665" fill="none" xmlns="http://www.w3.org/2000/svg" xmlns:xlink="http://www.w3.org/1999/xlink">
	<desc>
			Created with Pixso.
	</desc>
	<defs/>
	<path id="Vector" d="M17.43 0L9.24 0C1.77 0 0 1.77 0 9.23L0 17.41C0 24.88 1.76 26.66 9.23 26.66L17.41 26.66C24.88 26.66 26.66 24.9 26.66 17.43L26.66 9.24C26.66 1.77 24.9 0 17.43 0ZM21.52 19.02L19.58 19.02C18.84 19.02 18.62 18.43 17.3 17.11C16.15 16 15.66 15.86 15.37 15.86C14.97 15.86 14.86 15.97 14.86 16.52L14.86 18.27C14.86 18.75 14.7 19.02 13.47 19.02C12.27 18.94 11.1 18.58 10.07 17.96C9.04 17.34 8.17 16.49 7.54 15.47C6.03 13.59 4.97 11.38 4.47 9.02C4.47 8.73 4.58 8.47 5.13 8.47L7.08 8.47C7.58 8.47 7.76 8.69 7.95 9.2C8.9 11.98 10.51 14.4 11.16 14.4C11.41 14.4 11.52 14.29 11.52 13.66L11.52 10.8C11.44 9.5 10.75 9.38 10.75 8.91C10.75 8.79 10.81 8.67 10.9 8.59C11 8.51 11.12 8.46 11.24 8.47L14.3 8.47C14.72 8.47 14.86 8.68 14.86 9.18L14.86 13.04C14.86 13.45 15.04 13.59 15.16 13.59C15.41 13.59 15.61 13.45 16.06 13C17.05 11.79 17.85 10.46 18.45 9.02C18.52 8.85 18.63 8.7 18.78 8.6C18.94 8.5 19.12 8.45 19.3 8.47L21.25 8.47C21.83 8.47 21.95 8.76 21.83 9.18C21.12 10.76 20.25 12.26 19.22 13.66C19.01 13.98 18.92 14.15 19.22 14.52C19.41 14.81 20.09 15.38 20.55 15.93C21.22 16.59 21.77 17.36 22.19 18.2C22.36 18.74 22.08 19.02 21.52 19.02Z" fill="#FFFFFF" fill-opacity="1.000000" fill-rule="nonzero"/>
</svg>
